<?xml version="1.0" encoding="utf-8"?>
<!-- Generator: Adobe Illustrator 16.0.0, SVG Export Plug-In . SVG Version: 6.00 Build 0)  -->
<!DOCTYPE svg PUBLIC "-//W3C//DTD SVG 1.1//EN" "http://www.w3.org/Graphics/SVG/1.1/DTD/svg11.dtd">
<svg version="1.1" id="Layer_1" xmlns="http://www.w3.org/2000/svg" xmlns:xlink="http://www.w3.org/1999/xlink" x="0px" y="0px"
	 width="1207.333px" height="322px" viewBox="0 0 1207.333 322" enable-background="new 0 0 1207.333 322" xml:space="preserve">
<path fill="#11284B" d="M186.857,199.899v-0.007c-0.416-0.745-0.572-2.04-0.756-3.524c-0.177-1.444-0.375-3.089-0.865-4.721
	c-0.817-2.78-2.357-4.886-2.943-5.628c0.225-0.681,0.681-2.14,0.743-2.99c0.006-0.076,0.006-0.137,0.006-0.212
	c0-1.042-0.51-1.895-1.26-3.141l-0.225-0.368c0-0.004-0.096-0.307-0.157-0.48c0.068-0.33,0.79-3.989,0.79-3.989
	c0.272-1.859,2.711-5.783,3.617-7.136l0.109-0.153l0.006-0.19c0.007-0.034,0.007-0.165,0.007-0.371
	c0-1.479-0.197-7.131-3.046-12.907c-2.82-5.71-5.621-8.066-7.875-9.369c0.988-1.301,1.335-2.521,1.335-3.4
	c0-0.463-0.082-0.831-0.184-1.076c-0.402-0.934-1.839-0.893-4.496-0.674c-0.211-0.396-0.504-0.95-0.504-0.95
	c-0.532-0.911-1.935-1.482-3.209-1.326c-0.361,0.05-1.056-0.627-1.464-1.263l-0.369-0.575c0,0-0.306,0.224-0.381,0.278
	c-1.021-1.22-2.146-2.64-3.242-4.176c0.04-0.027,0.176-0.092,0.176-0.092c-0.014-0.038-1.533-3.982-3.815-8.03
	c-1.669-2.97-1.908-5.004-2.051-6.35l-0.191-1.192c-0.251-0.981-0.927-2.575-1.24-3.277c0.586-1.103,0.879-1.987,0.879-2.599v-0.015
	c-0.083-2.844-4.933-12.518-6.125-14.868l0.034-0.028c0,0-0.074-0.095-0.136-0.159c-0.041-0.085-0.34-0.671-0.34-0.671
	s-0.109,0.031-0.191,0.051c-0.177-0.19-0.477-0.535-0.647-0.736c-1.867-8.833-7.127-16.076-8.428-17.534
	c-1.247-1.44-8.496-3.097-10.614-3.55c0.007-0.075,0.007-0.149,0.007-0.231c0-0.604-0.027-1.227-0.048-1.628
	c-0.034-0.545-0.286-0.862-0.491-1.036c-0.606-0.498-1.519-0.382-2.119-0.301c0,0-0.061,0.007-0.102,0.014
	c-0.006-0.014-0.02-0.054-0.02-0.061c0.041-0.436,0.062-0.878,0.062-1.294c0-2.033-0.457-3.879-1.37-5.504
	c0.021,0.051-0.061-0.157-0.061-0.157l-0.109-0.272c-1.247-2.855-4.66-4.231-4.803-4.289c0,0-0.082,0.112-0.109,0.146
	c-1.561-0.733-3.229-1.169-4.673-1.169c-8.625,0.007-11.085,4.187-12.195,7.335c-0.273,0.633-0.477,1.199-0.586,1.676
	c-0.006,0.014-0.238,1.202-0.238,1.202c-0.211,1.142-0.396,2.123-0.872,2.79c-0.688,0.968-1.029,1.594-1.083,1.717
	c-0.545,0.436-1.097,0.65-1.649,0.811l-1.042,0.382c-0.858,0.466-1.145,1.525-1.145,2.404c0,0.266,0.027,0.518,0.068,0.736
	c0.17,0.807,0.586,0.999,0.886,1.022c0.327,0.017,0.559-0.129,0.736-0.327c0.497,0.027,3.079,0.205,3.079,0.205
	c0.607,0.041,1.445-0.14,2.18-0.294c0.211-0.047,0.457-0.095,0.675-0.135c0,0.088,0.014,0.128,0.014,0.238
	c0,0.657-0.088,1.707-0.211,2.596l-0.04,0.293c0,0,0.517,0.617,0.769,0.917c-0.027,0.089-0.061,0.181-0.074,0.276l-0.266-0.178
	l-0.313,0.858c-0.021,0.061-2.378,6.633-4.122,9.859c-0.79,1.424-2.33,2.936-3.788,4.169c-0.559-0.903-0.906-1.704-0.906-1.714
	l-0.129-0.276c0,0-0.988-0.327-1.451-0.477c-0.027-0.478-0.089-1.649-0.089-1.649s-2.194-0.651-2.691-0.797
	c-0.143-0.393-0.457-1.301-0.457-1.301l-0.129-0.116c-0.211-0.184-5.116-4.497-9.191-5.607c-3.917-1.035-9.633-1.444-10.076-1.478
	c-0.082-0.02-1.308-0.29-1.935-0.43c-0.02-0.293-0.047-0.578-0.143-0.919c-0.054-0.163-0.245-0.64-1.212-1.404
	c0.013-0.063,0.034-0.166,0.034-0.166c0,0.01,0.17-0.698,0.252-1.005c0.279-0.323,1.117-1.379,1.396-2.705
	c0.034-0.163,0.061-0.316,0.061-0.47c0-1.107-0.872-1.86-1.595-2.248c-0.102-0.396-3.651-1.18-4.101-1.152
	c-0.171-0.511-0.647-1.267-1.833-2.493c-3.542-4.061-7.235-5.116-12.733-3.611c-6.274,1.679-7.521,8.086-7.937,10.192l-0.095,0.467
	c-0.15,0.562-0.334,5.406-0.232,5.788c-0.129,0.34-1.137,2.923-1.137,2.923c0,0.006-0.191,0.402-0.191,0.402
	c-0.368,0.743-1.029,2.064-1.029,3.566c0,0.559,0.096,1.147,0.334,1.733c0.654,1.663,2.324,2.988,4.933,3.932
	c0.749,0.272,1.471,0.457,2.208,0.613c0,0.018,0.006,0.021,0.013,0.041c-0.103,0.375-1.499,5.491-1.499,5.491
	c0-0.007-0.259,0.92-0.518,1.822c-0.089-0.18-0.211-0.459-0.211-0.459l-0.477,1.798l-0.777,2.95c0,0,0.143,0.24,0.143,0.25
	c-0.218,1.057-0.899,4.323-1.451,5.801c0,0-0.518,1.049-3.352,2.003c-3.352,1.124-10.11,5.227-10.833,5.853
	c-0.252,0.15-2.01,0.695-3.419,1.131c-1.315,0.412-2.767,0.861-3.993,1.287c-0.082-0.319-0.211-0.633-0.463-0.913
	c-0.573-0.653-0.702-1.145-0.723-1.246c0.007-0.055,0.014-0.075,0.014-0.165c0-0.436-0.137-1.212-0.947-2.003
	c-0.245-0.245-0.538-0.449-0.845-0.64c0.197-0.872,2.418-10.581,2.418-10.581s-0.143-0.249-0.17-0.296
	c0.129-0.514,18.129-67.207,18.817-69.771c0.021,0.024,0.088,0.112,0.088,0.112l0.361-1.346c0,0,2.262-8.833,2.786-10.911
	c1.131,1.424,3.897,4.919,3.897,4.919l0.041,0.034c1.567,1.451,2.923,2.01,4.034,1.649c0.933-0.307,1.553-1.199,1.833-2.678
	c0.633-3.239-1.676-7.739-8.25-16.031C39.16,7.878,37.818,6.267,36.38,6.24c-1.049-0.02-1.764,0.807-2.841,2.078l-0.484,0.559
	c-2.071,2.385-0.388,5.205,0.832,6.408c0.21,0.272,4.441,5.61,4.81,6.08c-0.178,0.627-4.204,14.818-4.204,14.818
	s0.211-0.068,0.368-0.129c-0.62,2.354-18.34,69.247-18.477,69.771c-1.029,0.648-1.703,2.408-2.18,5.618
	c-0.456,3.124-0.933,4.881-1.281,5.876c-0.477,0.232-1.09,0.705-1.519,1.733l-0.436,1.39l-0.034,0.139
	c-0.007,0.008-0.273,1.057-0.273,1.057c-0.246,0.998-0.497,2.03-0.729,2.548c-0.17,0.392-0.266,0.886-0.266,1.417
	c0,1.219,0.491,2.653,1.41,3.671c-0.047,0.27-0.082,0.667-0.082,1.151c0,1.05,0.218,2.412,1.186,3.329
	c1.315,1.229,2.364,1.103,3.134,1.011l0.627-0.041c1.24,0.082,1.744-0.451,2.452-1.192l0.143-0.15
	c0.109-0.115,0.109-0.115,0.321-0.098c0.483,0.05,1.028-0.004,1.553-0.777c1.452-0.34,6.629-1.311,6.807-1.349
	c5.13-0.276,16.133-4.731,17.114-5.41c0-0.003,1.424-1.192,1.424-1.192c0.939-0.828,2.098-1.87,3.563-2.817
	c2.507-1.625,2.602-3.505,2.602-3.795c0-0.023,0-0.129,0-0.129l-0.027-0.078c-0.041-0.12-0.055-0.287-0.055-0.484
	c0-1.625,1.131-5.542,1.513-6.251c0.382-0.041,1.131-0.129,1.131-0.129l0.149-0.25c0,0,0.975-1.434,1.09-1.61
	c0.021-0.014,0.021-0.014,0.041-0.021c2.568,2.473,3.72,3.912,4.224,4.681c0.429,0.646,1.042,1.212,1.703,1.802
	c0.007,0.01,0.014,0.014,0.027,0.023c0.177,0.457,0.252,0.733,0.252,0.733s0.259-0.004,0.641,0.108
	c0.913,0.897,1.785,1.98,2.303,3.574c0.45,1.301,4.394,12.733,7.467,14.399l2.18,1.257c0,0,0.906,0.538,1.594,0.933
	c-0.457,0.702-4.245,6.561-4.558,7.052c-1.499,0.061-2.923,0.269-4.19,0.459l-0.783,0.123c-1.812,0.262-2.78,0.705-3.066,1.383
	c-0.068,0.146-0.095,0.289-0.095,0.418c0,0.12,0.027,0.232,0.068,0.327c0.088,1.063,0.797,2.95,2.888,3.362
	c0.682,0.126,0.886,0.347,0.954,0.501c-0.272,0.436-6.506,10.273-6.506,10.273c-2.957,4.831-3.618,7.617-4.088,9.641
	c-0.293,1.186-0.49,2.043-1.056,2.93l-0.306,0.477c-1.417,2.17-2.371,3.648-2.371,5.695c0,0.116,0,0.239,0,0.368
	c0.021,0.042,0.021,0.096,0.021,0.138c0,1.596-1.363,4.032-1.901,4.856l-2.603,5.184c0,0,2.922-0.98,3.972-1.334
	c-0.109,0.313-0.226,0.646-0.375,0.974c-0.497,1.247-0.702,2.275-0.702,3.158c0,2.088,1.145,3.328,2.276,4.541l0.19,0.211
	c1.676,1.785,4.251,3.129,5.007,3.497c0.266,0.123,0.668,0.204,1.166,0.259c0.007,0.021,0.021,0.034,0.027,0.048l-0.102,0.19
	l-18.163,33.533c0.013-0.021-7.597,13.128-9.15,15.807c-3.44-0.293-12.004,0.252-13.333,1.232c-1.24,0.961-0.967,2.31-0.838,2.964
	l0.041,0.245c0.082,1.301,1.288,2.071,1.417,2.153l0.095,0.054l0.109,0.041c0.259,0.081,6.445,2.052,9.954,2.582
	c3.413,0.498,10.656,1.254,13.183,1.417c2.841,0.197,3.373-1.145,3.475-1.614l0,0c0,0,0-0.028,0.007-0.04
	c0.027-0.123,0.102-0.505,0.102-1.022c0-0.661-0.136-1.506-0.688-2.187c-0.797-0.981-6.138-3.522-9.75-4.838
	c0.92-1.696,8.305-15.254,8.305-15.254l17.448-31.838c0.382,0.45,0.797,0.907,1.247,1.369c2.793,2.91,3.774,4.204,4.108,6.146
	c0.409,2.248,3.045,7.842,3.161,8.073l0.082,0.184l0.177,0.102c0.014,0,0.252,0.151,0.796,0.546
	c-0.054,0.178-0.225,0.763-0.225,0.763c0,0.027-0.027,0.137-0.047,0.273c-0.014,0.014-0.055,0.075-0.055,0.075
	c-0.055,0.067-1.438,1.682-1.771,3.209c-0.272,1.259-0.348,4.236-0.361,5.122c-0.246,0.231-0.436,0.456-0.572,0.702
	c-0.832,1.431-4.456,5.15-6.432,6.166c-1.117,0.565-5.321,3.256-5.321,4.857c0,0.055,0.014,0.095,0.021,0.15
	c0.218,1.177,2.861,3.119,4.361,3.44c1.526,0.319,5.647-0.232,8.236-1.296c2.024-0.047,2.352-0.23,2.542-0.612l-0.068,0.089
	c0,0,0.422-0.553,0.654-0.865c0.566,0.014,3.706,0.061,3.706,0.061c0.007,0,1.527,0.014,2.351,0.021
	c0.477,1.962,1.056,3.699,1.492,4.838c1.329,3.646,3.107,5.348,3.754,5.886c0.041,0.498,0.286,3.386,0.286,3.386
	c0.102,1.315,0.688,2.624,1.049,3.332c-0.246,0.267-0.341,0.674-0.409,1.036c-0.007,0-0.048,0.007-0.048,0.007l-0.429,4.578
	l2.418,5.267c0,0,0.232,0.62,0.321,0.858c-0.021,0.271-0.743,11.029-0.743,11.029l0.014,0.048l0.307,1.24
	c0.17,0.505,0.34,0.838,0.531,1.09c0.13,0.253,0.164,0.389,0.177,0.484c-0.205,0.054-0.463,0.121-0.463,0.121l0.259,0.689
	c0.47,1.273,1.206,3.358,1.315,3.835c0.013,0.075,0.021,0.144,0.021,0.211c0,0.402-0.273,0.995-1.581,3.025
	c-1.035,1.587-1.655,3.127-2.002,4.189c-0.082,0.136-0.736,1.282-0.736,1.282l0.341,0.313c0.123,0.144,1.37,1.396,5.845,1.689
	c0.062,0.015,0.225,0.021,0.225,0.021h0.116c0.062,0.014,0.259,0.027,0.259,0.027c0.027,0,1.035,0.014,1.035,0.014
	c4.02,0,4.647-1.281,4.756-1.683c0.027-0.123,0.095-0.423-0.238-1.532c-0.443-1.8-1.472-5.233-1.806-6.255
	c-0.381-1.117-0.211-2.678,0.361-3.399c0.6-0.735,1.465-2.378,2.092-3.625c-0.041,0.048,0.422-0.579,0.422-0.579l0.109-0.144
	l0.014-0.163c0.334-2.97-2.828-5.293-4.306-5.9c-0.524-0.204-0.15-2.234,0.096-3.576c0.17-0.94,0.347-1.914,0.416-2.827
	c0.116-1.777-0.157-2.378-0.45-3.012c-0.19-0.423-0.375-0.811-0.47-1.71c-0.226-2.104,0.599-3.72,0.613-3.747l1.008-1.936
	c0,0-0.334,0.185-0.572,0.313c0.3-0.838,0.6-1.955,0.92-3.494c0.538-2.46,0.702-3.87,0.702-4.783c0-0.804-0.129-1.212-0.252-1.601
	l-0.115-0.449c-0.096-0.505-0.362-0.921-0.688-1.466c-0.572-0.933-1.438-2.351-2.105-5.219c-0.75-3.208-0.899-8.094-0.927-10.539
	c0.593,0.627,1.315,1.526,1.854,2.623c0.974,1.955,2.234,3.379,2.745,3.91c-0.034,0.205-0.088,0.402-0.088,0.613
	c0,1.098,0.437,2.255,0.845,3.216c0.416,0.94,1.192,2.133,1.499,2.589c-0.238,0.668-0.457,1.274-0.504,1.403
	c-0.088,0.144-0.164,0.313-0.19,0.586c-0.007,0.063-0.007,0.123-0.007,0.19c0,0.914,0.531,2.256,1.785,3.387
	c0.266,0.239,0.463,0.388,0.661,0.511c-0.014,0.634-0.122,7.535-0.122,7.535l0.054-0.211c-0.095,0.401-0.149,0.776-0.149,1.131
	c0,0.319,0.04,0.62,0.123,0.892c0.102,0.635,0.319,1.125,0.517,1.451c-0.232,0.335-0.497,0.812-0.524,1.24
	c-0.041,0.409-0.708,3.093-1.839,6.397c-0.3,0.886-0.45,1.567-0.45,2.119c0,0.471,0.109,0.824,0.327,1.124
	c0.51,0.702,1.39,0.688,2.235,0.675h0.238c1.533,0.014,2.644-0.71,3.625-1.363l0.348-0.218c0.599-0.361,1.662-0.026,2.009,0.13
	c0,0,0.042,0.014,0.048,0.021c-0.109,0.504-0.266,1.328-0.266,2.269c0,0.225,0.007,0.457,0.028,0.674
	c0.157,1.603,1.737,3.032,2.371,3.55c0.006,0.239,0.027,0.437,0.034,0.634c-0.347,0.436-0.565,0.906-0.565,1.417
	c0,0.313,0.088,0.641,0.218,0.975c-0.028,0.041-0.164,0.313-0.164,0.313l0.061,0.177c0.02,0.068,0.137,0.682,0.545,1.444
	c0.3,0.593,0.791,0.954,1.349,1.151c0.007,0.014,0.027,0.033,0.027,0.033c0.416,0.941,0.614,2.086,0.614,3.313
	c0,1.512-0.307,3.14-0.928,4.659c-1.287,3.135-2.18,6.207-2.187,6.234l-0.184,0.647c0,0,0.368,0.067,0.641,0.122
	c0.061,0.075,0.245,0.32,0.538,1.09c0.483,1.316,0.538,3.714,0.538,4.64c0,0.198,0,0.3-0.014,0.348c0,0.048-0.041,0.341-0.075,0.559
	c-0.143,0.15-0.708,0.743-0.708,0.743l2.044,3.201l0.585-0.531c0.164-0.144,0.744-0.579,1.213-0.64
	c0.286,0.64,0.845,0.599,1.029,0.559c1.648-0.293,3.134-0.185,4.558-0.075l0.668,0.047c0,0,0.055,0.008,0.088,0.014
	c-0.055,0.089-0.129,0.171-0.19,0.245l-0.941,0.954l1.322,0.179c0.763,0.095,1.424,0.135,1.866-0.267
	c0.369-0.326,0.436-0.776,0.436-1.458c0-0.157-0.007-0.327-0.007-0.511c0,0,0-1.466,0-1.485c0-0.709-0.191-1.369-0.442-1.99
	c0-0.027,0.027-0.142,0.027-0.142c0.007-0.048,0.027-0.164,0.027-0.348c0-0.518-0.143-1.629-1.008-3.625
	c-1.13-2.486-1.736-8.917-1.764-9.171c0.007-0.319,0.109-4.932,0.184-7.725c0.109,0.033,0.184,0.081,0.334,0.081
	c0.559-0.007,1.301-0.32,2.016-0.77c-0.115,0.354-0.17,0.695-0.17,0.995c0,0.782,0.3,1.354,0.443,1.621
	c0.027,0.068,0.047,0.17,0.047,0.286c0,0.382-0.17,0.994-0.328,1.601l-0.286,1.11c-0.082,0.376-0.109,0.709-0.109,1.029
	c0,1.28,0.586,2.077,0.613,2.119l0.177,0.231l0.293,0.026c0.777,0.068,7.645,0.647,9.062,0.321c1.43-0.342,3.413-1.424,3.501-1.473
	l0.306-0.169l0.035-0.368c0.026-0.443,0.177-1.744,0.51-2.371c0.122-0.252,0.17-0.478,0.17-0.668c0-0.464-0.279-0.777-0.456-0.994
	c-0.26-0.294-0.525-0.593-0.538-1.431c0-1.493-0.382-2.439-0.641-3.06l-0.191-0.572c-0.095-0.606-0.668-0.98-1.335-1.417
	c-0.456-0.3-1.145-0.756-1.22-1.091c-0.006-0.047-0.006-0.096-0.006-0.148c0-0.457,0.246-1.125,0.477-1.731
	c0.239-0.633,0.463-1.233,0.504-1.784c0-0.021,0-0.042,0-0.063c0-0.136-0.027-0.279-0.075-0.421c0.211-0.219,0.34-0.505,0.368-0.854
	c0-0.047,0.006-0.102,0.006-0.148c0-0.894-0.544-1.636-1.233-2.576l-0.885-1.267c-0.981-1.526-2.385-5.894-2.657-8.891
	c0.021-0.15,0.988-6.623,1.192-7.972c0.143-0.068,0.306-0.17,0.477-0.368c0.279-0.326,0.586-0.899,0.586-1.471
	c0-0.062-0.028-0.116-0.042-0.184c0.777-1.363,5.191-9.191,5.607-11.631c0.061-0.368,0.096-0.824,0.096-1.348
	c0-1.684-0.273-4.096-0.559-6.609c-0.279-2.439-0.552-4.96-0.552-6.636c0-0.048,0-0.116,0-0.171c0-3.434,0.586-9.653,0.723-11.023
	c0.034-0.109,0.164-0.504,0.252-0.755c1.552-1.07,2.438-1.132,2.833-1.05c0.389,0.074,0.538,0.3,0.538,0.313l0.042,0.055
	l0.062,0.074c0.177,0.184,1.758,1.751,3.454,1.622c2.139-0.164,2.882-1.261,3.127-2.146c0.178-0.627,0.954-1.09,1.942-1.663
	c0,0,0.286-0.17,0.306-0.184c-0.006,0.048-0.006,0.089-0.006,0.131c-0.137,0.292-0.512,1.226-0.512,2.643
	c0,0.313,0.014,0.661,0.068,1.021c0.225,1.703,0.94,3.774,1.219,4.559c-0.791,1.109-1.212,2.385-1.212,3.59
	c0,1.118,0.34,2.174,1.049,2.978c0.852,0.98,0.865,2.315,0.872,3.487l0.034,1.043c0.006,0.075,0.006,0.164,0.006,0.246
	c0,1.212-0.62,2.622-1.24,3.147c-1.016,0.872-1.513,1.797-2.48,4.142c0,0-0.034,0.103-0.081,0.225
	c-0.034-0.02-0.117-0.088-0.117-0.088s-0.831,2.452-0.933,2.78c0,0-0.014,0.013-0.021,0.013c-0.947,0.163-2.487,1.765-2.937,2.262
	l-0.361,0.381l0.327,0.478c0,0,0.102,0.156,0.102,0.518c0,0.396-0.123,1.029-0.593,1.982c-1.171,2.385-1.737,4.762-1.771,4.865
	l-0.21,0.906l4.367-0.443c0.967-0.075,2.262-0.538,3.106-0.879c0.007,0.143,0.014,0.3,0.014,0.498c0,0.796-0.055,2.043-0.272,3.931
	c-0.048,0.374-0.062,0.735-0.062,1.069c0,1.342,0.328,2.385,1.015,3.162c1.343,1.56,3.85,1.947,7.202,2.057
	c4.912,0.137,5.709-1.594,6.2-3.692l0.156-0.662c0.164-0.523,0.225-1.163,0.225-1.879c0-0.894-0.095-1.887-0.178-2.848
	c-0.074-0.853-0.149-1.649-0.149-2.283c0-0.149,0-0.286,0.014-0.422c0.013-0.184,0.021-0.367,0.021-0.559
	c0-1.684-0.483-3.557-1.608-4.36c-0.559-0.368-1.199-0.491-1.751-0.593c-0.32-0.061-0.919-0.17-0.96-0.301
	c-0.021-0.054-0.035-0.122-0.035-0.19c0-0.572,0.655-1.654,1.063-2.336l0.007-0.021c0.184,0.224,0.368,0.456,0.368,0.456
	l0.381-1.192c0.027-0.096,0.763-2.486,0.872-4.142c0.014-0.089,0.014-0.171,0.014-0.26c0-0.919-0.333-1.73-0.62-2.459
	c-0.219-0.524-0.41-1.021-0.41-1.409c0-0.021,0-0.076,0-0.076c0-0.033-0.013-0.361-0.02-0.408c0.048-0.103,0.116-0.313,0.116-0.313
	l-0.067,0.074c0.026-0.014,0.442-0.675,0.442-0.675c0.293-0.572,0.777-1.505,1.594-2.234c1.404-1.206,2.958-2.562,3.278-3.76
	c0,0.006,0.572-1.69,0.572-1.69c0.791-2.316,1.472-4.298,1.52-5.171c0.007-0.067,0.013-0.137,0.013-0.204
	c0-0.988-0.477-1.9-0.776-2.384c0.15-0.368,0.422-1.017,0.62-1.493c0.559,0.034,2.296,0.15,2.8,0.19
	c1.165,2.48,3.733,7.358,5.777,6.82c2.35-0.613,4.633-1.859,5.375-6.888c0.088-0.606,0.137-1.233,0.137-1.873
	c0-1.479-0.273-3.073-0.743-4.729c0.306,0.408,0.613,0.783,0.947,1.063c2.119,1.689,4.55,2.078,6.698,1.076
	c1.873-0.878,2.146-2.861,2.363-4.462l0.144-0.92c0.061-0.354,0.088-0.716,0.088-1.104
	C188.24,203.299,187.77,201.609,186.857,199.899z M34.717,9.551c0,0,0-0.33,0.109-0.702c0.123-0.429,0.381-0.906,0.934-0.981
	c0.647-0.082,1.709,0.416,3.427,2.231c0.885,0.95,1.956,2.269,3.243,4.047c0.088,0.123,0.17,0.228,0.259,0.357
	c4.183,5.879,6.166,8.7,6.963,11.05c0.429,1.281,0.511,2.422,0.497,3.186c-0.021,0.637-0.102,1.019-0.102,1.019
	s-0.034-0.088-0.116-0.238c-0.627-1.301-3.768-7.685-7.093-11.855C39.167,13.005,34.717,9.551,34.717,9.551z M44.651,256.78
	c0.259,0.307,0.252,0.545,0.055,0.722c-0.545,0.505-2.528,0.6-4.122,0.497c-2.146-0.148-18.633-3.419-18.633-3.419
	s-0.968-0.981-1.601-0.185c-0.027,0.041-0.061,0.082-0.095,0.136c-0.586,1.022-0.443-0.238-0.443-0.238s0.518-1.628,2.418-1.853
	c2.977-0.061,7.829-0.396,10.533-0.219c0,0,0.368,0.116,0.96,0.307c0.035,0.014,0.068,0.014,0.102,0.034
	C36.591,253.456,43.847,255.861,44.651,256.78z M34.902,251.821c-0.143-0.048-0.341-0.123-0.559-0.205
	c-0.02-0.014-0.054-0.021-0.082-0.035c-0.183-0.067-0.388-0.142-0.558-0.204c0.375-0.646,8.802-15.22,9.102-15.73
	c0.246,0.116,0.45,0.231,0.709,0.354C43.207,236.572,35.161,251.344,34.902,251.821z M176.773,147.636
	c0.668,0.313,1.315,0.885,1.861,1.89c0.102,0.188,0.19,0.348,0.286,0.514c1.887,3.386,1.894,3.393,1.894,3.393
	c1.151,2.79,2.473,6.926,1.451,10.353c-1.042,3.45-2.043,6.06-2.043,6.06l-1.016,0.423c-0.811-5.226-1.717-11.467-2.609-15.548
	c-0.551-2.535-1.342-5.021-2.173-7.25C175.119,147.301,175.956,147.261,176.773,147.636z M165.553,187.58
	c-0.211,0.524-1.28,1.62-1.975,2.303l-0.668-0.123c0,0-0.729-1.21-1.655-2.467l-1.172-2.24l2.603-9.001c0,0-0.014-5.791,0.143-4.176
	c0.177,1.639,3.073,6.697,2.447,3.944c-0.641-2.746,1.375-4.476,1.375-4.476l0.736-0.91l-0.627,11.282l-2.5,5.223
	C164.259,186.939,165.873,186.782,165.553,187.58z M134.534,165.261c-0.178-0.267-0.471-0.49-0.846-0.688
	c-0.81-0.423-2.078-0.703-3.794-0.818c-4.457-0.297-8.319,3.85-9.416,5.147c-0.21-0.398-0.443-0.836-0.565-1.049
	c0.742-0.865,4.482-5.06,8.142-5.925c0.456-0.109,0.919-0.174,1.369-0.163c1.445,0.034,3.25,0.688,4.551,1.791
	c0.096,0.089,0.198,0.181,0.3,0.272c0.238,0.232,0.45,0.478,0.633,0.744c0.409,0.586,0.682,1.257,0.729,1.992
	c0.027,0.324,0.034,0.589,0.041,0.816c0.007,0.134,0.007,0.274,0.007,0.372c0,0.191-0.007,0.323-0.013,0.436
	c-0.17-0.31-0.47-0.946-0.934-2.214c0-0.031,0.007-0.034,0.007-0.075C134.745,165.743,134.711,165.513,134.534,165.261z
	 M129.588,165.288l-0.368,2.368l-0.865-2.243L129.588,165.288z M121.229,178.665c-0.014,0.419-0.035,0.957-0.083,1.604
	c-0.115,1.736-1.914,0.946-2.289,0.37l0.144-0.514c0,0,1.035,0.739,1.471,0.219c0.45-0.493,0.15-2.146,0.15-2.146l0.096-0.106
	l0.504-0.529l0,0v0.007C121.222,177.57,121.242,177.953,121.229,178.665z M116.629,180.378c-0.947-0.681-9.77-4.715-15.104-9.115
	c-5.382-4.415-7.971-4.796-6.513-8.312c1.431-3.536,1.717-1.718,0.981,0.075c-0.723,1.73-1.165,2.508,4.435,6.322
	c5.56,3.814,15.704,9.77,15.704,9.77s1.342,0.902,1.499,1.505c0.164,0.62,0.484,1.864,1.329,1.507
	c0.804-0.348,1.54,0.919,1.54,0.919l1.028-0.14l-0.068,1.012c0,0-0.77-0.654-1.792-0.722c-0.981-0.068-1.41,0.313-1.41,0.313
	l-0.92-1.69C117.338,181.822,117.604,181.024,116.629,180.378z M115.035,267.007c-0.054-2.241,0.042-6.493,0.47-7.045
	c0.449-0.579,0.756,0.845,0.927,4.489c0.156,3.652-0.934,13.912-0.934,13.912s-0.014,0.15-0.122,0.231l-0.43,0.041
	c-0.075-0.02-0.17-0.062-0.279-0.115C113.884,278.057,115.09,269.227,115.035,267.007z M115.941,217.716
	c-3.025-3.033-3.414-6.289-3.414-6.289l2.875,2.207c0.947,1.083,1.955,1.151,1.955,1.151s0.082,1.431,1.001,2.889
	C119.287,219.166,118.974,220.74,115.941,217.716z M108.556,255.759c-0.096-1.492-0.525-2.828-0.92-3.938
	c0.299-0.369,0.633-1.003,0.92-2.141c0.055-0.177,0.082-0.367,0.082-0.538c0-0.782-0.476-1.526-1.308-2.159
	c0.041-0.116,0.102-0.252,0.102-0.252c0.321-0.77,0.654-1.574,0.715-2.426c0-0.055,0.007-0.109,0.007-0.164
	c0-0.23-0.096-0.456-0.177-0.681c0.021-0.171,0.075-0.56,0.075-0.56l-0.021-0.025c0,0-0.299-2.004-0.354-2.373
	c0.143-0.156,0.715-0.592,2.711-0.448c1.302,0.082,1.642,0.436,1.73,0.586c0.047,0.074,0.061,0.149,0.061,0.218
	c0,0.15-0.061,0.279-0.061,0.279l-0.047,0.096l-0.021,0.129c0,0-1.349,12.44-1.377,12.625c-0.033,0.088-0.94,2.323-1.846,4.584
	c-0.089-0.17-0.178-0.307-0.265-0.436c0.027-0.265,0.061-0.531,0.061-0.893C108.625,256.814,108.604,256.316,108.556,255.759z
	 M77.938,156.205l0.654,0.157c0,0,0.498-1.297,1.601-1.741c1.117-0.479,1.887,0.117,1.887,0.117c0.77,0.32,1.826,0.506,1.826,0.506
	s-0.845,0.908-0.75,1.322c0.109,0.416,0.92,0.579,1.199,0.191c0.293-0.388,0.483-1.035,0.483-1.035l0.191,1.076l-2.351,2.963
	l-3.373-0.108c0,0-0.463-0.974-1.083-1.675C77.578,157.262,77.938,156.205,77.938,156.205z M76.399,154.884
	c-1.997-0.283-2.201-1.485-2.031-1.88c0.171-0.396,2.296,0.15,2.296,0.15c1.717,0.374,2.624,0.708,2.624,0.708
	S78.416,155.167,76.399,154.884z M92.158,140.863l-1.847-0.266l-0.211,1.061l-0.532-0.296l0.348-0.934l-0.934-0.333
	c-0.177-0.498,0.409-1.738,1.008-2.808c1.07-0.436,2.275-0.981,3.577-1.639c4.408-1.374,8.591-3.079,9.45-4.704
	c0.456-0.858,0.83-1.587,1.13-2.197l-0.374,1.359c-0.785,2.511-2.249,4.932-3.257,6.41c-1.813,0.137-4.115,0.737-5.961,1.247
	c-2.767,0.771-3.788,2.194-3.788,2.194l1.737,0.232l0.708,1.127l-0.422,0.668l-1.05-0.477l0.675-0.099L92.158,140.863z
	 M135.31,124.615l0.273-0.208l0.272-0.208l1.308-0.991l0.294-0.221l0.286-0.221l0.416-0.311c0,0,0.197,0.174,0.225,0.702
	c0.006,0.108,0,0.245-0.021,0.389c-0.007,0.109-0.027,0.234-0.062,0.367c-0.088,0.453-0.286,1.036-0.647,1.786
	c-0.047,0.109-0.102,0.205-0.163,0.313c-0.041,0.096-0.096,0.191-0.143,0.293c-0.007,0-0.014,0.007-0.014,0.011
	c-0.225,0.422-0.477,0.865-0.736,1.298c-0.075,0.123-0.143,0.245-0.211,0.36c-0.068,0.115-0.15,0.232-0.218,0.347
	c-1.567,2.542-3.284,4.899-3.284,4.899s-0.878-2.825-3.992-3.444c-3.059-0.61-6.69-0.575-9.279,1.195
	c-0.068,0.042-0.123,0.075-0.184,0.117c-2.637,1.928-6.888,4.244-6.888,4.244s0.075-0.143,0.137-0.385
	c0.047-0.235,0.088-0.563,0.034-0.926c-0.028-0.174-0.075-0.351-0.149-0.542c-0.015-0.031-0.021-0.061-0.035-0.088
	c-0.456-1.028-1.805-2.136-2.187-4.258c-0.416-2.125-1.493-7.841-1.493-7.841s0.661,1.227,1.404,2.575
	c0.136,0.252,0.279,0.518,0.422,0.777c0.334,0.613,0.668,1.205,0.934,1.679c0.239,0.425,0.43,0.756,0.538,0.926
	c0.062,0.086,0.129,0.17,0.19,0.25c0.436,0.552,1.083,1.036,1.738,1.417c0.109,0.059,0.204,0.117,0.313,0.171
	c0.082,0.054,0.164,0.095,0.253,0.136c0.013,0.014,0.02,0.021,0.034,0.027c0.878,0.484,1.539,1.767,1.955,1.54
	c0.544-0.324,0.784-0.822,0.784-0.822s0.198-0.184,0.443-0.415c0.477-0.434,1.158-1.039,1.131-0.904
	c0.347-1.26,1.805-2.65,2.705-2.909c4.667-1.404,7.351,3.639,7.351,3.639l1.581-1.2l0.388-0.299l0.402-0.301L135.31,124.615z
	 M134.963,123.572c-0.641-0.418-1.24-0.708-1.758-0.81c-0.034-0.007-0.068-0.021-0.102-0.021c-0.082-0.015-0.185-0.028-0.279-0.044
	c-0.115-0.01-0.245-0.031-0.389-0.051c-2.507-0.304-7.726-0.517-10.165,1.24c-1.39,0.994-2.691,1.365-3.154,1.362
	c0.082-0.109,0.272-0.3,0.695-0.606c2.234-1.602,6.949-3.7,9.279-3.346c1.437,0.219,2.745,0.467,3.882,0.709
	c0.117,0.027,0.246,0.047,0.368,0.082c0.13,0.024,0.239,0.048,0.368,0.081c0.934,0.212,1.703,0.417,2.269,0.587
	C135.63,123.026,135.283,123.31,134.963,123.572z M140.734,126.808c-0.007,0.112-0.021,0.238-0.035,0.372
	c-0.013,0.105-0.02,0.211-0.034,0.317c0,0.017,0,0.034-0.007,0.047c-0.034,0.32-0.068,0.64-0.102,0.917c0,0.017,0,0.034,0,0.051
	c-0.013-0.018-0.041-0.035-0.061-0.054c-0.055-0.065-0.123-0.124-0.123-0.124c-0.143-0.15-0.293-0.307-0.463-0.463
	c-0.027-0.027-0.055-0.054-0.082-0.084c-0.089-0.089-0.178-0.178-0.273-0.273c-0.019-0.021-0.04-0.037-0.061-0.061
	c-0.02-0.018-0.041-0.041-0.061-0.061c-0.048-0.051-0.109-0.106-0.164-0.16c-0.027-0.027-0.047-0.051-0.075-0.072
	c-0.075-0.078-0.157-0.153-0.238-0.235c-0.19-0.188-0.381-0.371-0.593-0.565c0.266-0.678,0.45-1.342,0.585-1.965
	c0.368,0.306,0.75,0.633,1.09,0.984c0.041,0.047,0.089,0.103,0.136,0.15c0.075,0.076,0.164,0.157,0.231,0.232
	c0.076,0.088,0.15,0.174,0.218,0.258c0.055,0.068,0.122,0.144,0.17,0.211C140.795,126.304,140.768,126.522,140.734,126.808z
	 M141.081,129.966l0.068-0.695l0.075-0.769c2.208,0.16,6.67,0.554,8.033,1.246c1.799,0.906,1.594,3.87,1.594,3.87
	s-3.182-0.736-4.257-0.811c-1.07-0.072-3.51-0.119-3.51-0.119l-3.202-2.092l-0.184-0.116l0.13-0.988l0.088-0.681L141.081,129.966z
	 M114.531,151.522c0,0,0.791,0.454,0.967,0.872c0.171,0.426,0.164,0.549,0.164,0.549l-1.601,0.061c0,0,0.3-0.272,0.408-0.563
	C114.612,152.132,114.531,151.522,114.531,151.522z M113.353,152.575c0,0-0.471-0.355-0.369-0.64
	c0.137-0.307,1.187-0.382,1.187-0.382L113.353,152.575z M114.061,153.791c1.049,0.331,1.908-0.283,1.908-0.283
	s0.293,1.649,0.538,2.077c0.232,0.423,0.825-0.346,0.825-0.346l-0.055,0.919l1.103,3.454l-0.98-1.294l-0.723-1.383
	c0,0-0.708,0.476-1.11,0.326c-0.396-0.17-0.32-1.236-0.32-1.236l0.19-0.665c0,0-1.615-0.246-2.684-0.435
	c-1.049-0.225-1.308-2.392-1.308-2.392l0.565-0.225C112.01,152.309,113.012,153.454,114.061,153.791z M117.945,178.154l-0.471,0.793
	c0,0-1.186-2.126-0.197-2.983c0.272-0.241,0.477-0.45,0.661-0.586c0.259-0.188,0.491-0.219,0.858,0.074
	c0.041,0.038,0.082,0.075,0.123,0.116c0.559,0.483,0.872,1.087,0.872,1.087l-0.423,0.255c0,0-0.572-1.393-1.423-0.79
	C117.079,176.761,117.945,178.154,117.945,178.154z M116.125,173.237c-0.436,0.38-1.328,1.537-1.328,1.537s-1.146-4.125-2.882-5.26
	c-1.751-1.106-4.375-4.146-3.823-6.284c0.553-2.181,2.119-1.492,3.025,0c0.92,1.492,3.788,3.869,4.674,5.757
	c0.892,1.866,1.737,4.163,1.737,4.163S116.555,172.888,116.125,173.237z M118.919,173.626c0,0-0.729-4.271-4.217-9.544
	c-3.488-5.305-5.498-5.232-5.369-7.031c0.116-1.829,0.573-2.616,0.654-0.777c0.082,1.819,1.39,3.127,3.134,4.47
	c1.716,1.309,3.127,4.664,4.721,7.773c1.615,3.142,2.051,5.784,2.051,5.784L118.919,173.626z M111.451,137.767
	c0,0-0.041-0.12-0.041-0.29c0.007-0.224,0.089-0.538,0.437-0.783c0.163-0.117,0.381-0.215,0.681-0.28
	c1.438-0.287,6.084-3.025,6.738-3.768c0.198-0.238,0.702-0.564,1.308-0.892c1.308-0.716,3.08-1.458,3.08-1.458
	c6.015-0.347,6.622,1.057,8.816,4.874c0,0-2.221-3.416-5.683-3.437c-1.757-0.014-3.379,0.3-5.048,0.957
	c-1.601,0.624-3.242,1.558-5.103,2.81C112.821,138.063,111.451,137.767,111.451,137.767z M114.067,113.332
	c0.804,0.764,2.63,2.518,2.63,4.061c0,0.034,0,0.079,0,0.115c-0.047,0.726-0.94,5.419-2.289,10.264
	c-0.204-0.105-0.381-0.238-0.572-0.449l0.108-0.235l0.511-1.049c0,0,0.947-3.44,1.472-5.961c0.096-0.433,0.164-0.825,0.232-1.206
	c0.361-2.398-0.641-2.671-0.641-2.671c-0.586-0.436-1.158,1.965-1.001,2.563c0.177,0.619,0.259,2.258-0.252,4.025
	c-0.321,1.056-0.715,2.31-0.988,3.161c-0.035,0.136-0.083,0.266-0.123,0.382c-0.232-0.423-0.504-0.964-0.825-1.669
	c0.027-0.071,0.048-0.15,0.082-0.228c0.225-0.679,0.47-1.59,0.272-1.958c-0.367-0.634,1.295-1.513,1.295-1.513l-0.416-3.052
	c0,0-1.247,0.903-1.355,2.528c-0.532-0.61-1.628-0.532-1.839,0.474c-0.014,0.068-0.041,0.126-0.041,0.211
	c-0.007,0.044-0.007,0.078-0.007,0.12c-1.24-1.703-2.453-2.938-2.453-2.938s0.198,4.879,0.682,7.478
	c0.184,0.999,0.177,1.748,0.123,2.32l-0.006-0.014c0,0-0.354,2.597-0.845,3.789c-0.436,1.053-1.935,2.732-2.2,3.021
	c-0.027,0.035-0.042,0.059-0.042,0.059l-0.334,2.581c-0.054-0.013-0.136-0.033-0.238-0.061c-0.082-0.024-0.184-0.047-0.306-0.092
	c-0.341-0.092-0.798-0.242-1.384-0.446c-0.967,1.37-1.628,2.119-2.084,2.507c-0.096,0.083-0.185,0.15-0.266,0.197
	c-0.123,0.079-0.232,0.123-0.327,0.143c-0.313,0.055-0.381-0.279-0.388-0.456c0-0.061,0-0.103,0-0.103s0.055-0.095,0.137-0.242
	c0.054-0.086,0.116-0.187,0.177-0.304c0.32-0.524,0.817-1.362,1.302-2.156c-0.164-0.018-0.341-0.027-0.525-0.038
	c1.001-1.52,2.323-3.788,3.079-6.186c0,0,0.307-1.158,0.559-2.102c0.116-0.432,0.225-0.82,0.286-1.032
	c0.028-0.109,0.048-0.177,0.048-0.177c0.082-0.32,0.143-0.6,0.218-0.852c0.266-1.031,0.471-1.525,0.927-1.757l0.238-0.125
	l-0.061-0.252c-0.007-0.037-0.013-0.085-0.013-0.154c0-0.19,0.027-0.504,0.061-0.79c0.042-0.477,0.096-1.05,0.096-1.642
	c0-0.936-0.143-1.917-0.681-2.636c-0.055-0.076-0.13-0.153-0.198-0.235c-0.572-0.552-1.642-1.049-3.168-1.768
	c-0.722-0.333-1.533-0.718-2.405-1.155c-0.811-0.274-2.214-0.813-3.236-1.563c-1.335-0.967-3.032-2.112-3.659-2.48
	c-0.102-0.061-0.17-0.102-0.211-0.116c0.061-0.163,0.191-0.34,0.368-0.532c0-0.065,0.007-0.128,0.014-0.187
	c1.144-0.879,3.127-2.436,4.081-3.419c0.926-0.931,2.398-3.411,3.229-4.873c0.116-0.197,0.218-0.377,0.299-0.528
	c1.125,0.981,4.231,3.72,7.126,6.275C111.057,110.615,113.591,112.866,114.067,113.332z M112.644,110.771l4.095-0.536l-3.284,1.626
	l-0.272,0.139l-0.266-0.618L112.644,110.771z M100.517,101.818c-0.034,0.047-0.055,0.096-0.082,0.15
	c-0.232,0.401-0.525,0.898-0.838,1.431c-0.784,1.314-1.737,2.816-2.391,3.461c-0.531,0.551-1.411,1.3-2.283,2.002
	c-0.47,0.382-0.94,0.749-1.349,1.063c-0.238,0.177-0.443,0.333-0.62,0.47c-0.007,0.007-0.014,0.007-0.021,0.014
	c-0.102,0.082-0.204,0.16-0.279,0.225c-0.198-0.375-0.484-0.927-0.702-1.329c0.171-0.047,0.381-0.13,0.627-0.246
	c0.838-0.408,2.043-1.327,3.243-3.385c0.021-0.028,0.034-0.056,0.048-0.083c1.11-1.874,1.86-3.195,2.357-4.155
	c0.218-0.44,0.389-0.812,0.511-1.111c0.007-0.014,0.014-0.027,0.014-0.044c0.021-0.044,0.041-0.085,0.054-0.126
	c0.021-0.055,0.042-0.116,0.062-0.167c0.047-0.154,0.088-0.296,0.116-0.419c0.217,0.126,0.579,0.429,0.974,0.79
	c0.238,0.225,0.491,0.478,0.743,0.729c0.041,0.047,0.095,0.1,0.143,0.143C100.769,101.369,100.653,101.57,100.517,101.818z
	 M98.957,138.206l-0.068,0.811l-4.538,1.846c0,0-0.79-0.456-0.641-0.97c0.178-0.542,1.254-0.467,1.254-0.467l1.11-0.484
	C98.146,138.418,98.957,138.206,98.957,138.206z M94.931,142.124c1.662-0.852,2.534-1.601,3.195-1.557
	c0.667,0.044,0.878-0.869,2.2-0.637c0.238,0.041,0.436,0.083,0.572,0.15c0.252,0.096,0.347,0.225,0.32,0.358
	c-0.034,0.215-0.354,0.467-0.831,0.691c-0.995,0.484-1.301,0.995-1.301,0.995s-0.225,1.757-1.193,1.806
	c-0.933,0.081-1.247,0.324-3.461,1.254c-1.104,0.477-0.32-0.838,0.647-1.444c0.975-0.6,0.634-1.554-1.213-0.082
	C92.014,145.162,93.847,142.642,94.931,142.124z M94.235,150.289c0.974-0.603,3.658-0.303,3.658-0.303l0.034-0.371
	c0.395,0.132-0.102,1.468-0.565,2.231c-0.457,0.783-0.45,0.525-1.076-0.078c-0.627-0.563-1.24,0.33-2.419,0.136
	C92.661,151.669,93.268,150.898,94.235,150.289z M93.22,155.709c0.913-0.964,1.628-1.415,2.139-1.622
	c0.354-0.157,0.607-0.18,0.736-0.177c0.068,0,0.109,0.015,0.109,0.015s-0.123,0.231-0.341,0.606
	c-0.055,0.091-0.116,0.197-0.184,0.307c-0.239,0.412-0.538,0.919-0.886,1.472c-0.524,0.824-1.131,1.724-1.751,2.466
	c-1.519,1.903-3.468,3.604-3.468,3.604l-9.381,15.916c0,0,0.988-2.354-0.531-3.687l5.934-11.738l1.056-2.105
	c0,0,1.036-0.552,2.316-1.421c0.961-0.646,2.085-1.47,3.032-2.374c0.055-0.055,0.123-0.105,0.177-0.162
	c0.226-0.223,0.45-0.444,0.641-0.668C92.955,155.984,93.091,155.842,93.22,155.709z M90.481,164.047
	c2.787-2.847,4.64-5.886,5.729-8.012c0.396-0.763,0.681-1.406,0.893-1.884l-0.845,0.181l0.061-0.129l0.034-0.074l0.321-0.695
	l0.333-0.715l0.041-0.082l0.143-0.075l0.858-0.449l0.348-0.668l3.025-5.852l1.253-3.475l0.136-0.361l0.129-0.361l0.484-1.345
	l0.674,0.643l0.251,0.239c0,0-0.013,0.062-0.02,0.15c-0.048,0.235-0.129,0.692-0.239,1.145c-0.034,0.137-0.075,0.266-0.115,0.396
	c-0.047,0.139-0.088,0.269-0.143,0.392c-0.041,0.092-0.089,0.177-0.123,0.249c-0.102,0.143-0.204,0.232-0.306,0.217
	c-0.048,0-0.089,0.021-0.137,0.077c-0.708,0.571-2.82,4.928-3.536,6.431c-0.15,0.32-0.238,0.518-0.238,0.518l1.484-1.622
	l1.233-1.345l2.494-2.74l0.436-2.283l0.075-0.411l0.075-0.409l0.055-0.287c0,0,0.027-0.031,0.082-0.064l-0.062-2.483
	c0.327-0.301,0.729-0.695,1.254-1.213c1.499-1.525,0.776-2.569,0.776-2.569s0.538-1.798,1.151-2.752
	c0.375-0.538,0.756-1.206,1.028-1.683c1.608,1.895,1.881,3.844,1.881,3.844c0.048,0.559-0.007,1.173-0.15,1.818
	c-0.395,0.783-0.81,1.431-1.226,1.938c0.143-0.023,0.204,0.042,0.088,0.259c-0.04,0.078-0.095,0.19-0.163,0.313
	c-0.116,0.225-0.287,0.508-0.477,0.841c-0.164,0.313-0.368,0.668-0.579,1.046c-1.594,2.808-4.033,7.083-4.033,7.083l-0.327,0.906
	l-4.108,4.728l-0.797,0.178c-1.485,1.799-2.841,3.652-3.393,4.991c-1.438,3.546-17.523,23.241-17.523,23.241
	C86.394,170.643,89.725,166.208,90.481,164.047z M101.757,155.723c-0.709,1.369-3.502,4.013-3.502,4.013
	c-0.715-1.473,1.322-1.939,2.466-3.884C101.879,153.897,102.466,154.343,101.757,155.723z M93.902,167.304
	c0,0,1.403,2.924,2.854,5.643c1.411,2.711,10.452,9.412,10.452,9.412s-9.6-0.856-12.434-1.247c-2.793-0.393-7.154-4.732-7.269-6.166
	C87.402,173.538,93.902,167.304,93.902,167.304z M136.325,166.896c-0.006-0.123-0.013-0.249-0.027-0.382
	c-0.047-0.705-0.259-1.339-0.586-1.917l0.825-2.797c0.157,0.326,0.328,0.647,0.484,0.933L136.325,166.896z M137.586,163.619
	c0.075,0.092,0.143,0.162,0.198,0.184c0.593,0.244,1.601-0.095,1.601-0.095l1.098,1.91c-0.437,1.792-1.247,3.15-2.133,4.169
	c-0.777,0.695-1.703,0.957-2.432,1.046C136.502,168.816,137.361,165.639,137.586,163.619z M134.902,163.517
	c-0.021-0.027-0.041-0.055-0.068-0.076c0.143-0.721,0.416-2.131,0.736-3.756c0.116,0.27,0.259,0.585,0.416,0.93L134.902,163.517z
	 M135.638,169.119c0.074,0.024,0.156,0.021,0.238,0.004c0.027-0.004,0.055-0.014,0.075-0.02l-0.293,1.757
	c-0.143,0.007-0.273,0.015-0.381,0.021L135.638,169.119z M138.567,170.322l1.499,1.498c0,0-2.433,3.271-3.291,3.822
	c-0.634,0.42-1.594,0.818-2.038,0.981c-0.149,0.063-0.245,0.096-0.245,0.096l0.205-3.018c0,0,0.075-0.052,0.184-0.141
	C135.467,173.13,137.286,171.746,138.567,170.322z M139.384,169.761c0,0,1.077-0.938,1.451-3.312l2.064,2.129l-1.737,2.129
	L139.384,169.761z M145.394,166.241c0,0,2.139-0.231,3.727-1.349s4.49-3.454,4.49-3.454s0.572,0.446-1.894,2.521
	c-2.46,2.051-5.355,3.073-6.901,3.584c-1.554,0.445-2.535-1.424-3.448-2.97c-1.54-2.638-0.633-2.784,0.525-4.912
	c1.178-2.175,1.996-0.894,2.043,2.642c0.075,3.557,0.47,3.493,1.247,2.733c0.75-0.771,1.547-0.423,0.811,0.139
	C145.223,165.734,145.394,166.241,145.394,166.241z M157.943,161.441c0.872,0.024,0.702,1.673,0.668,2.256
	c-0.055,0.609-0.791,1.25-1.962,0.48c0,0-0.804-0.144-1.227,0.122c-0.395,0.297-1.348,0.524-1.348,0.524s1.063-0.633,1.301-1.229
	c0.198-0.473,0.287-0.511,0.47-0.286C155.327,162.416,155.552,161.343,157.943,161.441z M153.132,165.369
	c0.369,0.641,2.801-0.136,2.801-0.136l-8.946,5.665l-1.594-1.298c-0.191-0.168-0.307-0.266-0.307-0.266l-0.552-0.453
	c0.219-0.105,2.344-1.06,3.917-1.504c1.642-0.496,5.355-4.7,5.355-4.7l0.899,0.201C154.707,162.879,152.765,164.732,153.132,165.369
	z M143.309,169.695c0.442,0.416,3.535,3.251,3.535,3.251c0.845,0.789,3.203,4.176,4.34,5.831c-1.533-0.653-4.395-1.941-5.716-3.019
	c-1.764-1.383-1.989-1.989-1.989-1.989l-0.075-0.205l-0.231-0.026c0,0-1.935-0.136-2.779-0.191
	C140.973,172.622,142.961,170.125,143.309,169.695z M148.746,173.058l6.028-5.597l1.343,2.096c0,0,0.688,1.794,0.817,3.702
	c0.163,1.87,2.35,5.246,2.35,5.246s-0.483,1.192-0.796,1.989c-0.191,0.47-0.355,2.058-0.464,3.284
	c-1.805-1.772-4.19-4.022-5.314-4.813C151.798,176.869,150.224,174.765,148.746,173.058z M157.739,167.399
	c-0.321-1.247-1.247-2.126-1.247-2.126s0.961,0.474,1.581,0.313c0.62-0.162,0.858-0.735,0.858-0.735l0.402,3.257l1.75,6.765
	l-0.749,2.164c0,0-0.143-1.002-0.865-2.072C158.726,173.903,158.065,168.612,157.739,167.399z M161.227,163.786
	c-2.302-1.789-6.901-8.769-6.901-8.769l1.036-0.133c0,0,2.984,3.639,5.437,6.629c2.228,2.793,5.218,4.551,7.351,5.569
	c0.17,0.078,0.354,0.178,0.517,0.242c2.174,0.953,6.058,0.408,8.074,0.334c2.038-0.065,0.32,1.243,0.32,1.243
	s-4.054,0.132-6.649-0.246c-0.594-0.084-1.268-0.297-1.983-0.59C165.975,167.086,163.019,165.145,161.227,163.786z M155.933,147.968
	c-1.24-1.017-1.13-2.524-1.13-2.524l2.329-0.336l1.152,2.5l-1.22,1.425C157.064,149.033,157.18,148.95,155.933,147.968z
	 M158.543,148.139l0.462,0.614l-0.068,2.649c0,0,0,0-0.497-0.443c-0.457-0.435-0.907-1.175-0.907-1.175L158.543,148.139z
	 M156.962,143.064c-0.279-0.797-1.376-1.407-2.31-1.792c-0.797-0.278-1.376-0.47-1.376-0.47s0.634,0.165,1.376,0.47
	c0.77,0.274,1.758,0.62,2.644,0.961c1.022,0.702,1.9,1.496,2.841,2.351l1.478,1.284c-0.517,0.34-1.09,1.08-1.472,2.03l-0.381,0.412
	C159.762,148.31,157.486,144.519,156.962,143.064z M163.101,158.435c0.565,0.564,1.11,1.505,1.11,1.505s-0.763,0.422-1.812-0.695
	c-0.15-0.159-0.3-0.347-0.457-0.564c-0.919-1.329-1.226-3.284-1.328-4.218c-0.034-0.333-0.042-0.538-0.042-0.538
	S162.549,157.909,163.101,158.435z M172.625,156.607c0.572-0.81,1.846-0.661,0.504,1.057c-1.308,1.744-5.048,2.452-5.048,2.452
	s-1.274,0.348-3.365,0.204c1.771-0.463,3.549-0.864,4.701-1.484C171.385,157.742,171.91,157.606,172.625,156.607z M171.821,146.504
	l0.068,0.157l0.129,0.31l0.505,1.19l0.313,0.128l0.852,0.347c0,0,1.628,2.938,2.139,7.019c0.545,4.087,2.276,11.691,2.276,11.691
	s-0.381-0.858-0.852-1.97c-0.763-1.84-1.778-4.373-1.744-4.874c0.027-0.508-0.225-2.437-0.586-4.166
	c-0.149-0.716-0.327-1.39-0.497-1.928c-0.088-0.259-0.177-0.483-0.272-0.667c-0.586-1.213-1.778-5.302-2.18-6.732
	c-0.048-0.139-0.068-0.249-0.102-0.333C171.842,146.576,171.821,146.504,171.821,146.504z M177.169,170.274
	c0.824-0.149,0.878-0.892,0.878-0.892s0.443,5.037,0.947,6.697c0.504,1.642,1.294,4.959,1.847,5.773
	c0.559,0.848-0.219,3.215-0.219,3.215l-0.6-3.063l-2.132-7.229c0,0-0.641-2.649-1.423-3.113c-0.777-0.467-1.315-1.519-1.315-1.519
	S176.345,170.432,177.169,170.274z M156.137,121.307c0.293,0.733,0.62,1.467,0.981,2.194c0.021,0.088,0.034,0.139,0.034,0.139
	c0.211,0.75,0.511,1.523,0.859,2.296c1.703,3.846,4.796,7.923,7.392,10.961c-0.041,0.143-0.047,0.307-0.026,0.471
	c0.122,0.857,0.933,1.894,0.933,1.894l-0.238,0.63c-3.093-0.364-7.439-1.142-9.75-1.632l-15.635-3.372
	c0.013,0.115,0.027,0.231,0.041,0.346c0.007,0.116,0.02,0.232,0.027,0.348c3.114,0.668,15.432,3.322,15.432,3.322
	c2.159,0.466,6.451,1.246,9.633,1.628c1.158,0.132,2.16,0.214,2.861,0.214c0,0,0.083-0.007,0.205-0.013
	c0.109-0.011,0.259-0.021,0.429-0.031c0.137-0.003,0.286-0.017,0.442-0.024c0.321-0.021,0.668-0.034,0.961-0.057
	c0.388-0.025,0.681-0.038,0.722-0.042c0.006,0,0.014,0,0.014,0c1.342-0.116,3.584-0.297,3.795,0.044
	c0.231,0.565,0.286,2.391-1.785,4.388c-0.082,0.074-0.164,0.157-0.252,0.228c-0.361,0.334-0.791,0.671-1.288,1.005
	c-3.781,2.547-5.655,2.508-9.109-0.211l-0.442-0.396l-0.702-0.6l-1.098-0.946c-0.238-0.218-0.47-0.436-0.701-0.647
	c-2.173-1.938-4.319-3.553-8.884-4.156c0,0-7.998-1.111-10.348-1.431c-0.014,0.102-0.035,0.218-0.055,0.333
	c-0.021,0.102-0.041,0.211-0.062,0.317c-0.061,0.296-0.128,0.589-0.197,0.902l2.05,1.053c0,0,3.918,5.127,5.43,6.436
	c1.336,1.138,4.443,4.646,5.274,5.594c2.262-0.018,5.347,0.067,6.894-0.709c0.082,0.417,0.17,0.858,0.279,1.315
	c-1.847,0.358-5.627,1.029-8.298,1.144c-1.015,0.051-2.698,0.035-4.579-0.006l-0.109,0.508c0,0-2.132,1.894-3.992,2.155
	c-1.336,0.205-2.263,0.771-2.672,1.057c-0.824,2.605-1.607,4.564-2.029,4.504c-0.307-0.052-0.634-0.362-0.906-0.914
	c-0.116-0.23-0.211-0.517-0.307-0.837c-0.409-1.438-0.497-3.735,0.333-6.834c-0.347-0.014-0.626-0.027-0.838-0.041
	c0.007-0.015,0.014-0.042,0.014-0.058c0.225-0.018,0.517-0.037,0.872-0.062c0.327-1.177,0.77-2.459,1.383-3.855
	c0.968-2.177,1.179-3.976,1.165-5.08c-0.054-1.104,0.218-3.331,0.218-3.331s2.929,2.824,3.182,3.855
	c0.109,0.478-0.723,4.221-1.765,8.088c3.72-0.287,8.114-0.647,9.129-0.804c0.3-0.044,0.688-0.068,1.124-0.085
	c-0.879-0.719-2.718-2.32-3.693-3.727c-1.042-1.594-6.417-7.212-8.236-9.091c-0.566,2.271-1.424,4.646-1.84,5.736
	c0.021,0,0.034-0.003,0.034-0.003c0.395,0.119,0.177,0.204-0.144,0.269c0,0.007,0,0.015,0,0.015h-0.013
	c-0.149,0.023-0.306,0.047-0.443,0.075c0,0-0.006,0.003-0.014,0.003c-0.374,0.064-1.056,0.624-1.056,0.624s-0.034,0,0.279-0.382
	c0.143-0.153,0.389-0.272,0.627-0.381c0.136-0.047,0.272-0.089,0.388-0.123c-0.007-0.007-0.021-0.014-0.021-0.014
	s-0.047-0.184-0.13-0.456c-0.183,0.075-0.401,0.149-0.626,0.279c-0.566,0.311-1.144,0.899-1.124,2.237c0,0-0.682,0.598,0.129,0.277
	c0.586-0.229,1.13-0.197,1.321-0.232c0.559-0.109,1.383,0.763,0.757,1.363c-0.518,0.49-1.186,2.665-1.751,4.823
	c0,0.014,0,0.017,0,0.034c-0.64,2.429-1.144,4.844-1.144,4.844l-0.123,0.519l-0.906,3.89c-0.096-0.075-0.184-0.156-0.279-0.228
	c-1.417-1.107-3.271-1.708-4.729-1.755c-0.634-0.006-1.267,0.096-1.908,0.276l-0.811-1.459c0,0-0.79-0.467-1.179-0.783
	c-0.395-0.282-0.014-1.594-0.014-1.594s-1.334-0.508-1.11-1.57c0.224-1.057-0.893,1.172-0.893,1.172l-1.587-2.419
	c0,0-0.811,0.096-1.343,0.058c-0.552-0.034-1.124-1.44-1.124-1.44l-0.525-0.035l-0.055-1.342l-0.675,0.095
	c0,0-0.477,1.049-1.028,1.008c-0.518-0.041-0.456-1.11-0.456-1.11l-0.545-0.035c0,0,0.313-2.426-1.308-2.65
	c-1.588-0.249-1.663-1.185-1.001-1.145c0.702,0.047,2.623,1.516,2.623,1.516s0.395-0.119-0.729-1.389
	c-1.111-1.301-1.656-1.478-1.656-1.478l0.634-1.152c0,0,2.95-0.215,4.265-1.489c1.308-1.253,0.041-2.817-0.457-3.12
	c-0.539-0.293-0.641,1.185-0.641,1.185s-0.17-1.24-1.417-0.917c-1.227,0.331-0.845-1.284-0.286-1.496
	c0.545-0.224,1.805-0.694,1.805-0.694s0.45-0.791,0.504-1.452c0.041-0.674-2.064,0.266-2.527,1.192
	c-0.477,0.9-1.534,4.875-1.534,4.875l0.034,1.229l-1.45,1.771l-0.655,1.581c0,0-0.551-1.785-0.082-2.828
	c0.477-1.049,1.39-2.357,1.478-3.688c0.089-1.333,0.205-3.077,0.205-3.077s5.348-3.28,6.752-4.257
	c0.653-0.478,1.335-0.872,1.859-1.029c0.621-0.181,1.036-0.044,0.988,0.668c0,0.047,0,0.092,0,0.135
	c0.021,1.258,1.492,2.133,2.125,2.303c0.136,0.034,0.286-0.047,0.463-0.204c0.708-0.64,1.765-2.493,2.964-2.416
	c1.478,0.1,3.454,0.522,4.728,3.587c1.288,3.021,1.206,3.423,1.67,4.183c0.177,0.308,0.456,0.579,0.763,0.858
	c-0.647-0.957-0.811-2.493-1.363-3.782c-0.497-1.137-1.969-3.886-1.969-3.886s2.037-2.599,4.463-6.601
	c0.014-0.017,0.014-0.028,0.027-0.044c0.068-0.124,0.13-0.242,0.198-0.368c0.068-0.116,0.142-0.235,0.204-0.367
	c0.082-0.154,0.143-0.308,0.218-0.464c0.13,0.129,0.259,0.252,0.389,0.375c0.013,0.014,0.027,0.024,0.041,0.042
	c0.082,0.077,0.163,0.156,0.246,0.231c0,0.007,0,0.007,0.006,0.02c0.055,0.05,0.116,0.106,0.177,0.164L138.86,128l-0.061,0.116
	l-0.15,0.279l-0.259,0.518l-0.272,0.511l-2.378,4.537l3.004,0.208l0.674,0.043h0.096c0,0,0.422,0.069,1.11,0.178
	c2.957,0.47,10.819,1.71,11.685,1.764c1.083,0.078,4.107-0.804,4.107-0.804l0.048-0.801l-3.434-0.787c0,0-0.518-4.346-1.281-5.212
	c-0.763-0.831-3.188-0.736-3.188-0.736l-7.235-0.286l0.028-0.245c0.074-0.027,0.143-0.057,0.21-0.089
	c3.571-1.556,9.647-8.43,12.618-13.193c0.211,0.365,0.436,0.841,0.47,1.264C154.741,116.091,154.209,116.31,156.137,121.307z
	 M149.127,95.38c0.796,1.554,6.056,11.96,6.138,14.634c0,0,0,0.014,0,0.021c0,0.464-0.251,1.151-0.667,1.989
	c-0.082,0.143-0.15,0.286-0.225,0.429c-0.075,0.136-0.157,0.273-0.238,0.409c-0.014,0.034-0.034,0.061-0.047,0.092
	c-2.637,4.5-9.027,11.875-12.659,13.568l0.062-0.497l-0.088-0.104c-0.096-0.139-0.211-0.278-0.334-0.415
	c-0.068-0.083-0.143-0.17-0.219-0.252c-0.074-0.085-0.149-0.164-0.224-0.242c-0.197-0.197-0.395-0.398-0.613-0.583
	c-0.307-0.275-0.62-0.542-0.933-0.783c0.279-1.965,0.006-3.349,0.006-3.349s-1.179,0.917-2.479,1.956
	c-0.545-0.181-1.369-0.413-2.418-0.657c-0.123-0.027-0.239-0.058-0.368-0.082c-0.117-0.027-0.238-0.062-0.362-0.083
	c-1.226-0.271-2.677-0.547-4.271-0.79c-2.521-0.381-7.385,1.757-9.756,3.461c-0.763,0.532-1.083,0.93-1.056,1.298
	c0.021,0.187,0.136,0.343,0.327,0.428c0.668,0.301,2.44-0.323,3.959-1.407c2.118-1.525,6.765-1.42,9.265-1.161
	c0.137,0.01,0.273,0.027,0.396,0.038c0.144,0.021,0.272,0.034,0.389,0.047c0.108,0.018,0.204,0.034,0.299,0.05
	c0.396,0.056,0.886,0.284,1.424,0.618c-0.388,0.313-0.708,0.584-0.919,0.776c-0.873,0.756-2.14,1.88-3.202,2.685
	c-0.13,0.101-0.266,0.19-0.402,0.292c-0.144,0.102-0.279,0.193-0.416,0.28c-0.035,0.023-0.069,0.047-0.109,0.074
	c-0.014-0.041-0.047-0.061-0.062-0.096c-0.082-0.135-0.17-0.252-0.259-0.378c-0.061-0.054-0.109-0.115-0.164-0.18
	c-0.074-0.083-0.149-0.162-0.231-0.239c-1.704-1.594-4.878-2.255-6.738-2.033c-2.18,0.262-3.311,2.891-3.311,2.891l-1.287,1.028
	l-0.062-0.043c0,0,0.94-4.8,2.93-7.484c1.233-1.668,0.422-3.406-0.408-5.708c-0.859-2.269,0.912-7.416,0.912-7.416
	s2.766,3.826,3.604,6.115c0.866,2.275,2.058,2.772,2.685,2.398c2.711-1.233,4.714-1.281,7.112-0.535
	c1.888,0.616,3.359-0.079,5.41-1.926c0.524-0.473,1.083-1.015,1.697-1.642c0.503-0.497,0.987-0.914,1.438-1.271
	c0.463-0.363,0.899-0.656,1.294-0.902c0.702-0.736,1.131-1.183,1.138-1.192l0.164-0.173l-0.593-1.135l-2.473-2.521l-0.095-0.106
	c-0.048-0.061-0.096-0.148-0.157-0.238c-0.449-0.711-1.301-2.16-1.43-2.898c0-0.015,0-0.035,0-0.042c0-0.014,0-0.021,0-0.031
	c0-0.18,0.102-0.425,0.286-0.705c0.143-0.224,0.334-0.464,0.573-0.729c0.299-0.34,0.667-0.705,1.089-1.063l0.913,0.838l0.647,0.598
	l0.626,0.573l0.144,0.139c0,0,0.027-0.085,0.074-0.218c0.082-0.207,0.225-0.542,0.382-0.922c0.157-0.357,0.333-0.753,0.51-1.097
	c0.239-0.436,0.471-0.79,0.675-0.906c0.095-0.054,0.218-0.069,0.368-0.062c0.225,0.011,0.497,0.076,0.77,0.178
	c0.231,0.082,0.462,0.177,0.667,0.273c0.43,0.204,0.756,0.388,0.756,0.388s-0.123-0.998-0.089-1.611
	c0.028-0.419,0.443-0.818,0.702-1.016c0.109-0.081,0.191-0.139,0.191-0.139s-0.245-0.19-0.559-0.613
	c-0.041-0.047-0.081-0.099-0.116-0.154c-0.129-0.174-0.252-0.381-0.381-0.617c0.021-0.01,0.054-0.027,0.082-0.041
	c0.109-0.034,0.19-0.061,0.286-0.075C149.106,95.387,149.12,95.38,149.127,95.38z M125.275,63.026
	c0.055,0.103,0.109,0.201,0.157,0.313c0.041,0.088,0.088,0.194,0.13,0.295c0.054,0.113,0.102,0.229,0.149,0.344
	c0.034,0.096,0.075,0.205,0.109,0.308c0.047,0.125,0.088,0.258,0.136,0.395c0.027,0.099,0.055,0.184,0.089,0.286
	c0.061,0.225,0.109,0.453,0.157,0.688c0.021,0.076,0.034,0.15,0.047,0.225c0.034,0.178,0.068,0.351,0.082,0.539
	c0.014,0.098,0.028,0.205,0.035,0.314c0.02,0.164,0.033,0.327,0.047,0.49c0,0.116,0.013,0.224,0.013,0.333c0,0.188,0,0.375,0,0.559
	c0,0.096,0,0.197,0,0.293c-0.013,0.29-0.027,0.586-0.061,0.886c0.013,0.191,0.061,0.371,0.129,0.552
	c0.014,0.041,0.027,0.089,0.041,0.126c0,0,0,0,0.006,0c0,0.014,0.014,0.024,0.014,0.031c0-0.007-0.014-0.017-0.021-0.031
	c-0.027-0.041-0.048-0.088-0.075-0.133c-0.381-0.552-0.334-2.854-0.334-2.854s-0.021-1.771-0.953-4.146
	C125.207,62.893,125.234,62.961,125.275,63.026z M99.536,73.961c-0.3,0.357-0.518,0.79-0.694,1.171
	c-0.028,0.058-0.048,0.112-0.076,0.17c-0.013,0.024-0.02,0.041-0.034,0.068c-0.007,0.017-0.014,0.034-0.014,0.047
	c0,0-0.014,0-0.014,0.007c-0.19,0.416-0.341,0.715-0.545,0.708c-0.396-0.031-0.661-2.324,0.463-2.917
	c0.082-0.043,0.176-0.081,0.266-0.122c0.055-0.021,0.116-0.042,0.177-0.062c0.014-0.003,0.034-0.007,0.048-0.021
	c0.763-0.246,1.771-0.371,2.664-1.321c0.177-0.068,0.436-0.17,0.77-0.29c1.097-0.392,2.997-0.978,4.926-1.107
	c2.937-0.211,8.053-0.388,11.262-0.054c3.243,0.367,4.885-0.337,4.885-0.337s0.641-7.239-0.858-7.197
	c-1.485,0.047-1.84,1.628-1.451,1.794c0.381,0.147,0.436-0.929,1.246-0.725c0.804,0.197,0.709,5.318-0.218,5.252
	c-0.953-0.061-1.396,0.838-3.106,0.055c-1.703-0.791-10.704-0.722-12.788,0.477c0,0-1.758-0.381,0.838-0.872
	c2.609-0.5,10.158-0.811,10.676-0.767c0.564,0.031,0.626-1.035-3.578-0.91c-4.142,0.096-7.16,0.988-7.978,0.941
	c-0.81-0.054-1.519-1.583-1.055-2.515c0.463-0.899,1.029-3.01,2.023-4.032c0.552-0.532,0.818-1.087,0.743-1.323
	c-0.061-0.208-0.395-0.17-1.049,0.341c-1.015,0.79-1.976,2.295-2.616,3.719c-0.007,0.028-0.021,0.048-0.027,0.075
	c0.293-0.838,0.675-1.676,1.2-2.466c0.006-0.007,0.013-0.011,0.013-0.014c0.13-0.194,0.273-0.396,0.423-0.583l0.006-0.003
	c0.293-0.371,0.62-0.729,1.001-1.063c0.041-0.034,0.082-0.071,0.123-0.108c0.15-0.123,0.293-0.243,0.45-0.362
	c0.062-0.038,0.109-0.082,0.164-0.123c0.19-0.137,0.381-0.259,0.586-0.381c0.026-0.015,0.04-0.035,0.061-0.042
	c0.225-0.129,0.462-0.259,0.715-0.381c0.075-0.035,0.149-0.062,0.225-0.099c0.177-0.086,0.368-0.164,0.572-0.239
	c0.096-0.038,0.177-0.071,0.28-0.105c0.21-0.076,0.416-0.144,0.64-0.205c0.082-0.027,0.157-0.054,0.252-0.079
	c0.3-0.085,0.62-0.156,0.954-0.224c0.081-0.015,0.164-0.031,0.245-0.048c0.259-0.047,0.531-0.085,0.804-0.123
	c0.129-0.021,0.252-0.034,0.382-0.044c0.259-0.034,0.531-0.061,0.811-0.075c0.129-0.007,0.252-0.02,0.381-0.027
	c0.402-0.028,0.818-0.041,1.261-0.041c0.157,0,0.313,0.009,0.463,0.019c0.054,0,0.096,0.008,0.136,0.015
	c0.15,0.007,0.307,0.027,0.464,0.047c0.013,0,0.013,0,0.026,0c1.146,0.157,2.44,0.545,3.707,1.192c0,0.007,0.007,0.015,0.021,0.021
	c0.217,0.255,0.572,0.653,0.967,1.107c0.968,1.123,2.242,2.64,2.732,3.45c0.832,1.397,0.429,3.407,0.211,4.987
	c-0.225,1.373-0.838,1.621-0.021,1.921c0.143,0.048,0.32,0.096,0.559,0.161c0.313,0.071,0.538,0.112,0.75,0.139
	c0.647,0.078,0.749-0.075,0.6-0.378c0.109,0.221,0.238,0.418,0.354,0.585c0.205,0.283,0.389,0.463,0.389,0.463
	s-0.818,0.062-1.921,0.536c-1.111,0.449-2.494,1.056-3.979,0.95c-0.852-0.055-3.536-0.607-6.187-0.961
	c-1.682-0.222-3.345-0.371-4.53-0.259c-0.178,0.021-0.341,0.031-0.491,0.058C107.357,71.923,100.258,73.041,99.536,73.961z
	 M124.458,77.36c-0.075,0.3-0.19,0.607-0.334,1.077c-0.334,1.056-0.395,4.139,0.17,5.665c0.014,0.017,0.021,0.037,0.021,0.058
	c0.552,1.465,0.804,1.628,0.804,1.628l-3.461,7.188c0,0-0.205-0.212-0.484-0.552c-0.777-0.933-2.181-2.848-1.874-4.203
	c0.395-1.867,2.521-3.74,2.889-4.791c0.333-1.056,0.265-3.882,0.837-4.657c0.6-0.776,1.192-1.671,1.192-1.671
	s-0.354-0.835,0.021-2.038c0.341-1.168,1.499-0.709,1.499-0.709l-0.184,0.532l-0.137,0.405c0,0-0.886-0.609-0.866,0.61
	C124.587,76.583,124.552,76.965,124.458,77.36z M111.308,75.705c0-0.038,0-0.075,0-0.109c0-0.593,0.73-1.677,0.817-1.805
	l0.185,0.081c-0.211,0.75-0.287,1.922-0.3,2.262c0.136-0.042,0.354-0.078,0.681-0.048c0.327,0.018,0.695,0.396,0.797,0.688
	c0.021,0.055,0.028,0.103,0.028,0.136c0,0.089-0.048,0.15-0.075,0.178c-0.143,0.115-0.402,0.068-0.845-0.15
	c-0.347-0.17-0.797,0.314-0.837,0.348c-0.021,0.007-0.519,0.211-0.879,0.054l-0.313-0.32c-0.035-0.072-0.055-0.143-0.055-0.205
	c0-0.245,0.225-0.421,0.422-0.578c0.197-0.16,0.381-0.307,0.381-0.495C111.315,75.732,111.308,75.718,111.308,75.705z
	 M114.102,83.291c1.226-0.177,2.821,0.044,2.875-0.767c0.055-0.776-0.381-2.18-1.73-2.384c-1.329-0.242-4.006-0.157-4.006-0.157
	c-0.75-0.569,2.582-0.757,2.582-0.757l-1.138-0.743c0,0,0.913,0.177,1.33,0.089c0.416-0.123,0.579-0.92,0.579-0.92
	s1.302,1.042,2.084,1.625c0.743,0.603,1.165,2.521,1.336,3.873c0.177,1.35-2.631,0.903-4.129,1.057
	c-1.486,0.167-2.793,0.082-2.753-0.443C111.165,83.212,112.869,83.472,114.102,83.291z M111.308,81.209c0,0,1.895-0.532,3.475-0.317
	c1.622,0.255-0.838,0.753-2.2,0.818C111.261,81.73,111.308,81.209,111.308,81.209z M111.724,86.51
	c0.933,0.061,2.03-0.272,2.637-0.926c0.559-0.634,2.425-0.219,3.556-0.955c1.117-0.742,0.845-4.401,1.11-4.527
	c-0.674,0.099-0.694-1.912-1.893-1.994c-1.192-0.081-2.057-1.628-0.688-1.525c1.335,0.089,3.509-2.211,3.509-2.211l1.382-0.432
	c0,0,0.252,2.431-0.627,3.338c-0.872,0.875-1.001,2.755-1.683,2.824c0.273-0.099,0.471,0.848,0.471,0.848s0.347,0.838,1.103-0.333
	c0.777-1.141,1.383-4.619,1.798-4.599c0.396,0.027,0.068,1.083,0.021,1.754c-0.048,0.691-1.88,3.801-2.807,5.753
	c-0.947,1.969-2.023,3.765-4.599,4.398c-2.603,0.647-3.856-0.668-3.856-0.668C110.777,86.823,110.798,86.441,111.724,86.51z
	 M101.812,91.793c0.927-1.72,1.982-4.25,2.806-6.343l1.24,0.375c0,0,0.519-1.452,0.941-1.83c0.074-0.054,0.157-0.061,0.231-0.034
	c0.068,0.988,0.17,2.691,0.17,2.691l0.021,0.054c-0.075,0.341-0.055,0.661,0.164,0.858c0.061,0.047,0.109,0.119,0.17,0.197
	l0.545,1.721c0.027,0.262,0.047,0.501,0.034,0.688c-0.013,0.228,0.177,0.545,0.443,0.852l0.109,0.351l2.664,1.87
	c0.395,0.44,0.791,0.887,1.049,1.114c0.409,0.375,0.94,0.484,1.274,0.514l2.644,1.861c0.585,0.473,1.178,0.942,1.642,1.317
	c0.095,0.014,0.197,0.027,0.292,0.047c0.62,0.096,1.083,0.174,1.342,0.215c0.136,0.024,0.218,0.038,0.218,0.038
	s0.143-0.19,0.388-0.457l2.589-5.416l4.714-8.606c0,0-1.219,0.478-1.601,0.634c-0.089-0.19-0.238-0.668-0.238-1.799
	c0-0.459,0.027-1.031,0.082-1.724c0.123-1.199,0.157-2.391,0.157-3.345c0-0.514,0-0.943-0.013-1.294
	c0.633,0.027,1.955,0.082,1.955,0.082l0.143-0.565c0.17-0.668,0.62-1.757,1.049-2.003c0.061-0.034,0.081-0.034,0.108-0.021
	l0.055,0.014c4.463,0.939,9.47,2.378,10.138,3.147c1.247,1.397,6.186,8.223,8.033,16.627c0.027-0.004,0.041-0.011,0.061-0.011
	c0.313-0.034,0.572,0.007,0.729,0.191c0.415,0.483,0.647,0.752,0.796,0.913c-0.196,0.041-0.408,0.108-0.626,0.211
	c-0.013,0.014-0.034,0.021-0.047,0.028c-0.068,0.034-0.144,0.075-0.219,0.115c-0.129,0.015-0.279,0.075-0.429,0.15
	c-0.702,0.341-1.622,1.189-2.521,1.758c-1.491,0.913-3.188,2.398-3.188,2.398l0.041,0.034c-0.565,0.487-1.076,1.004-1.465,1.512
	c-0.258,0.333-0.457,0.661-0.565,0.961c-0.062,0.177-0.102,0.344-0.102,0.505c0,0.047,0,0.108,0.014,0.159
	c0.006,0.068,0.026,0.139,0.04,0.215c0.321,1.185,1.622,3.144,1.676,3.229c0.015,0.014,0.137,0.143,0.328,0.331l-0.586,1.312
	l-6.765,4.111c0,0-5.744,1.508-7.617,1.121c-1.867-0.381-0.341-7.103-9.259-4.613c-2.711,0.777-4.973-0.132-6.056-0.207
	c-0.45-0.031-1.41,0.018-2.35,0.085c-3.101-2.749-6.603-5.828-7.713-6.806l0.117-0.201l-0.171-0.177
	c-0.123-0.134-0.238-0.256-0.354-0.372c-0.361-0.375-0.667-0.668-0.926-0.907c-1.111-0.988-1.417-0.881-1.547-0.834
	c-0.088,0.031-0.163,0.089-0.218,0.167c-0.014-0.136-0.041-0.27-0.075-0.402c-0.082-0.29-0.204-0.545-0.382-0.763
	c-0.061-0.082-0.115-0.149-0.197-0.218c-0.258-0.217-0.49-0.477-0.722-0.736C98.793,95.496,100.803,93.633,101.812,91.793z
	 M90.148,91.051l0.19,0.067l2.562,0.903l0.007,0.306l0.041,1.128c0,0,0.014,0.016,0.028,0.016c0.082,0.035,0.613,0.314,1.104,0.668
	c0.286,0.211,0.544,0.436,0.667,0.658c0.136,0.214,0.409,0.582,0.743,0.975c0.089,0.102,0.177,0.208,0.266,0.309
	c0.163,0.181,0.334,0.362,0.498,0.532c0.177,0.177,0.34,0.331,0.497,0.46c0.014,0.007,0.028,0.018,0.041,0.034
	c0.151,0.125,0.293,0.235,0.41,0.275c0.163,0.062,0.313,0.311,0.436,0.654c0.034,0.137,0.081,0.286,0.115,0.457
	c0.048,0.225,0.068,0.477,0.082,0.749c0,0.035,0.007,0.079,0.007,0.123c0.007,0.188-0.007,0.382-0.021,0.579c0,0.006,0,0.02,0,0.031
	c-0.006,0.054-0.006,0.116-0.014,0.174c-0.048,0.408-0.143,0.824-0.293,1.219c-0.204,0.388-0.45,0.825-0.702,1.292
	c-1.274,1.938-3.74,4.953-3.74,4.953l-0.913-1.686c0,0-3.42-0.034-6.254-3.049c-2.82-3.008-2.794-6.441-2.794-6.441l-1.505,4.142
	c0,0-2.534-1.193-2.78-3.618c-0.251-2.466,1.07-3.774,1.07-3.774s0.675-0.973,1.288-0.939c0.606,0.047,1.942,0.953,1.942,0.953
	l1.56-1.932l5.103-1.056L90.148,91.051z M67.863,80.419c0.054-0.144,0.177-0.174,0.177-0.174s0.633,0.946,0.586,1.549
	c0,0,0.027,0.143-0.014,0.348c-0.021,0.085-0.055,0.18-0.095,0.279c-0.014,0.034-0.028,0.061-0.034,0.088
	c-0.034,0.062-0.068,0.113-0.109,0.174c-0.354,0.494-0.498-0.038-0.498-0.038s0.021-0.038,0.041-0.096
	c0.102-0.249,0.34-0.923,0.075-1.499C67.828,80.726,67.828,80.535,67.863,80.419z M65.989,79.199
	c0.245-1.147-0.395-2.95-0.988-4.277c-0.041-0.103-0.088-0.205-0.129-0.297c-0.381-0.838-0.715-1.434-0.715-1.434
	s0.306,0.441,0.695,1.099c0.088,0.153,0.184,0.317,0.279,0.487c0.641,1.151,1.356,2.718,1.39,3.938
	c0.048,2.241-2.064,5.129-2.064,5.129h-1.724C62.732,83.846,65.54,81.175,65.989,79.199z M64.776,89.515l0.64-0.542l0.095,1.6
	l0.334,1.053l0.858-0.551l-0.926,1.567l-1.131,1.72L64.776,89.515z M62.691,94.842c-0.893,1.049-2.112,1.492-2.112,1.492
	s0.777-1.083,1.642-1.812c0.858-0.757,1.723-7.474,1.723-7.474l0.852-0.968C64.796,86.081,63.57,93.799,62.691,94.842z M56.982,70.2
	c3.106,1.818,5.457,5.818,5.457,5.818l-0.62,0.368c0,0-2.909-4.858-5.484-5.641c-2.555-0.75-5.239-0.531-5.239-0.531l-0.137-0.825
	C50.959,69.389,53.882,68.367,56.982,70.2z M57.418,79.278c0,0.038-0.021,0.068-0.062,0.085c-0.027,0.014-0.068,0.007-0.103-0.017
	c-0.013-0.021-1.791-1.542-2.67-1.979c-0.354-0.181-0.647-0.216-0.858-0.093c-0.402,0.228-0.45,0.899-0.463,0.937l-0.47,0.992
	c-0.02,0.041-0.061,0.057-0.095,0.057c-0.047-0.007-0.082-0.034-0.095-0.074l-0.988-3.501c0-0.031,0-0.065,0.021-0.089
	c0.021-0.027,0.061-0.041,0.095-0.041c0.116,0.014,3.059,0.225,4.408,1.547C57.466,78.403,57.418,79.244,57.418,79.278z
	 M43.874,72.55l0.504-1.39c0,0,0.096,0.004,0.313-0.047c0.218-0.065,0.6-0.185,1.145-0.463c1.056-0.545,2.889-1.001,2.889-1.001
	l-0.048,0.79c0,0-1.063,0.539-2.467,0.845c-1.001,0.215-1.709,0.722-2.071,1.036C43.97,72.461,43.874,72.55,43.874,72.55z
	 M47.151,76.849l-0.238,3.621c-0.007,0.048-0.042,0.078-0.096,0.089c-0.041,0.007-0.088-0.03-0.102-0.071
	c0,0-0.491-1.798-0.579-2.105c-0.164,0.185-0.545,0.627-0.545,0.627c-0.014,0.024-0.048,0.034-0.075,0.034s-0.055-0.01-0.075-0.034
	l-0.75-0.865c-0.041-0.042-0.041-0.098,0.007-0.136l1.526-1.496c0.021-0.031,0.055-0.038,0.095-0.031l0.763,0.266
	C47.13,76.757,47.165,76.798,47.151,76.849z M44.003,91.749l0.464-0.756c0,0,1.615,0.498,3.093,0.838
	c0.381,0.096,0.743,0.177,1.07,0.231c1.587,0.307,3.27-0.365,6.581-1.56c3.311-1.209,7.296-6.186,7.296-6.186l1.779,0.129
	c0,0-1.656,1.264-4.831,4.248c-0.021,0.023-0.054,0.05-0.082,0.071c-3.229,3.018-8.012,4.905-10.621,4.731
	c-0.6-0.038-1.145-0.119-1.622-0.235C45.005,92.768,44.003,91.749,44.003,91.749z M19.089,122.578
	c0.238,0.278,0.32,0.545,0.32,0.756c0,0.163-0.048,0.289-0.089,0.389l-0.238-0.845l-0.164-0.062
	c-0.021-0.007-0.17-0.085-0.197-0.412l-0.014-0.317C18.816,122.243,18.938,122.404,19.089,122.578z M36.101,35.263
	c0.109-0.02,0.225-0.044,0.354-0.051c0.17-0.017,0.34,0,0.517,0.041h0.007c0.198,0.051,0.362,0.157,0.512,0.269
	c0.102,0.089,0.197,0.188,0.272,0.266c-2.473,9.163-16.815,62.324-19.131,70.937c-0.082-0.089-0.177-0.171-0.287-0.246
	c-0.129-0.1-0.272-0.185-0.443-0.226c-0.082-0.02-0.163-0.038-0.251-0.055c-0.102-0.023-0.218-0.033-0.328-0.03
	C19.647,97.359,33.396,45.473,36.101,35.263z M16.425,118.861l0.082-0.343c0.313,0.157,0.661,0.381,0.981,0.698
	c0.286,0.283,0.45,0.548,0.538,0.78c-0.082,0.279-0.177,0.579-0.238,0.783c-0.014,0.058-0.034,0.116-0.048,0.154
	c-0.055-0.096-0.102-0.154-0.157-0.29c-0.075-0.225-0.19-0.457-0.334-0.674c0-0.021,0-0.042,0-0.042s-0.116-0.157-0.136-0.194
	c-0.252-0.385-0.504-0.688-0.518-0.715l-0.245,0.194L16.425,118.861z M16.009,133.723l-0.811,0.048
	c-0.647,0.081-1.261,0.143-2.105-0.559c-0.028-0.095-0.068-0.197-0.109-0.316l-0.136-0.392l-0.102-0.321
	c-0.075-0.354-0.068-0.716-0.055-1.045l-0.014-0.644c-0.054-0.293,0.034-0.597,0.034-0.597l0.054-0.181l-0.116-0.136l-0.231-0.266
	l-0.273-0.32l0.007-0.023l-0.129-0.112l-0.457-0.526v0.017c-0.865-1.167-1.13-2.871-0.735-3.754c0.007-0.006,0.013-0.02,0.02-0.031
	c0.021-0.054,0.198-0.463,0.655-0.885c0.238-0.219,0.531-0.429,0.926-0.593c1.192-0.504,1.513-0.518,1.526-0.532l0.082-0.643
	c-0.225-0.064-1.39-0.389-1.915-0.325h-0.021c0.007-0.064,0.034-0.136,0.034-0.136c0.007,0,0.083-0.146,0.083-0.146
	c0.21-0.099,0.347-0.232,0.538-0.65c0.095-0.215,0.129-0.381,0.129-0.519c0-0.081-0.021-0.142-0.034-0.21
	c0.075-0.041,0.211-0.122,0.211-0.122c0.798-0.436,1.322-0.882,1.342-0.907l1.914,0.327l-0.251,0.197c0,0,0.368,0.505,0.497,0.696
	c0.027,0.037,0.041,0.061,0.062,0.088c0.027,0.157,0.095,0.532,0.095,0.848c0,0.044,0,0.093-0.014,0.132c0,0.052,0,0.096,0,0.138
	c0,0.49,0.218,0.647,0.695,0.984l0.238,0.167c0.429,0.313,0.463,0.47,0.47,0.49c-0.014,0.048-0.034,0.109-0.055,0.181
	c-0.416,0.013-1.186,0.119-1.499,0.739c-0.17,0.34-0.497,0.6-0.729,0.756c-0.157,0.102-0.259,0.174-0.273,0.181l0.348,0.568
	c0.007-0.004,0.054-0.034,0.129-0.081c-0.279,0.857-0.599,2.35-0.334,4.025c0.307,1.939,0.593,3.033,1.451,3.577
	c0.089,0.065,0.191,0.124,0.293,0.171C16.949,133.587,16.684,133.777,16.009,133.723z M18.959,132.3
	c-0.259-0.028-0.606-0.062-0.995,0.266c-0.129-0.042-0.245-0.083-0.354-0.141c-0.647-0.338-0.926-1.114-1.253-3.192
	c-0.381-2.354,0.559-4.388,0.572-4.408l-0.054-0.027c0.348-0.194,0.729-0.385,1.022-0.47c0.368-0.112,0.559-0.106,0.668-0.089
	c-0.416,0.198-0.675,0.385-0.715,0.525c-0.252,0.933-0.041,6.25,0.299,6.846c0.102,0.164,0.205,0.28,0.32,0.365
	c0.232,0.161,0.559,0.167,1.083,0.058C19.341,132.327,19.191,132.321,18.959,132.3z M33.11,122.438c0,0-0.886,0.508-1.9,0.719
	c-1.009,0.218-9.124,2.657-9.695,2.751c-0.3,0.058-1.117,0.327-1.853,0.587c-0.715,0.251-1.342,0.483-1.342,0.483l-0.157-1.86
	L19.6,124.7c1.561-0.442,3.945-1.121,5.069-1.41c1.737-0.454,5.832-2.31,5.832-2.31s0.511-1.1,1.833-1.871
	c1.329-0.756,3.666-1.593,6.465-3.106c0.293-0.153,0.586-0.299,0.879-0.439c0.3-0.141,0.607-0.262,0.906-0.392
	c1.226-0.484,2.398-0.825,3.243-1.036c-0.062-0.507,0.034-1.285,0.381-2.463c0.313-1.08,0.436-2.674,0.436-2.674l2.493,2.384
	l-1.24,3.151c-0.32,1.148-0.082,0.528-0.266,1.216c-0.184,0.698-0.742,0.518-1.614,0.745c-0.865,0.229-4.612,1.108-6.698,2.389
	C35.242,120.162,33.11,122.438,33.11,122.438z M47.689,118.872c0,0-1.226,1.199-1.655,1.451c-0.45,0.252-1.602,0.607-2.058,1.002
	c-0.45,0.402-0.995,0.075,0.661-1.376c1.662-1.458,2.589-2.521,2.589-2.521c1.819,0.402,2.105,0.425,2.105,0.425L47.689,118.872z
	 M53.889,109.946c-0.197,0.027-0.729,0.102-1.431,0.154c-0.191,0.017-0.401,0.03-0.62,0.037c-1.451,0.068-3.338,0.007-4.429-0.634
	c-1.39-0.817-2.269-1.85-2.745-2.521c-0.116-0.157-0.204-0.3-0.266-0.402c-0.062-0.082-0.096-0.15-0.129-0.204
	c0.041-0.15,0.251-0.933,0.436-1.666c0.123,0.235,0.258,0.507,0.415,0.801c0.314,0.565,0.695,1.202,1.131,1.785
	c0.231,0.317,0.483,0.617,0.736,0.879c0.415,0.422,0.858,0.749,1.308,0.926c1.274,0.565,2.405,0.767,3.373,0.77
	c0.136,0,0.272-0.003,0.408-0.014c0.334-0.013,0.668-0.062,0.968-0.123c0.096-0.027,0.19-0.04,0.279-0.065
	c0.15-0.037,0.293-0.078,0.436-0.125c0.191-0.062,0.368-0.129,0.539-0.204C54.107,109.619,53.937,109.871,53.889,109.946z
	 M54.734,95.189c-0.129,0.143-1.369,1.356-2.003,1.09l0,0c-0.64-0.266-0.368-1.581-0.334-1.734l0.014-0.099l2.453,0.624
	L54.734,95.189z M56.022,98.791h-0.007l-0.013-0.011c-0.28-0.108-0.43-0.266-0.437-0.457c-0.013-0.483,0.919-0.995,2.037-1.56
	l0.157-0.079c1.001-0.494,1.955-2.824,1.976-2.857c0,0,0.674-1.148,0.702-1.178l1.703-1.111l0.252-0.164l-0.108,0.286
	c0,0-1.001,2.603-1.036,2.647c0,0-1.001,0.664-1.015,0.65C60.219,95.012,58.896,99.188,56.022,98.791z M69.832,89.48
	c-0.014,0.32-0.048,0.606-0.075,0.837c-0.231,1.708-0.701,1.523-0.701,1.523s1.533,1.536,0.204,3.243
	c-1.342,1.741-2.241,0.467-2.241,0.467l-0.715,1.346l-1.397-0.266c0,0-0.538,2.047-2.779,2.197
	c-0.068,0.007-0.129,0.014-0.198,0.014c-2.425,0.043-2.807-0.389-2.807-0.389l0.858-0.961c0,0,2.249-0.061,3.304-0.596
	c1.015-0.514,2.78-2.436,3.263-3.628c0.491-1.158,1.846-3.508,1.179-5.771c-0.626-2.255-1.117-4.122-1.117-4.122l0.054-0.787v-0.024
	c0,0,0.375,0.226,0.688,0.559c0,0.008,0.014,0.014,0.021,0.02c0.15,0.165,0.286,0.369,0.361,0.576
	c0.034,0.112,0.062,0.229,0.054,0.351l0.457,0.081h0.007l0.708,0.147l0.401,0.079c0,0-0.136,0.156-0.292,0.375
	c-0.048,0.067-0.102,0.146-0.15,0.221c-0.19,0.316-0.347,0.695-0.266,0.991C68.81,86.55,70.008,86.837,69.832,89.48z M75.302,89.229
	c0,0-0.858,0.933-2.385-0.559c-1.526-1.533-0.858-2.303-1.607-2.936c-0.763-0.665-1.24-2.736-1.24-2.736s0.177-0.006,0.463-0.023
	c1.369-0.069,5.532-0.151,8.959,1.069c0.28,0.095,0.552,0.208,0.831,0.327c4.033,1.693,8.938,5.191,8.938,5.191l-5.15,1.083
	l-0.926,1.532c0,0-0.743-0.865-1.526-0.916c-0.824-0.048-1.915,1.094-1.915,1.094l-2.439-2.583l0.068-1.007L75.302,89.229z
	 M77.244,136.642c-0.02,0.028,0.109-0.065,0.45-0.017c0.068,0.041,0.136,0.082,0.204,0.116c1.608,0.885,3.114,1.597,4.02,1.656
	c0.525,0.15,1.097,0.262,1.69,0.32l1.9,1.15l1.179,0.628l-0.75,0.735l0.531,0.324l-2.289-0.153c0,0,0.518,0.563,1.43,0.771
	c0.954,0.184,1.554,1.297,2.214,1.342c0.641,0.042,1.009,0.579,3.059,0.893c-1.171-0.133-2.5,0.251-0.879,0.885
	c1.703,0.641,3.502,1.982,3.502,1.982l-3.168-0.885c0,0-2.207-1.376-5.15-1.829c-2.937-0.463-1.268-1.022-2.875-1.421
	c-1.574-0.372-1.697,1.377-0.402,2.125c1.281,0.787,4.483,1.271,6.997,2.112c2.5,0.832,1.99,2.286,1.99,2.286l-1.274-0.902
	l-1.029,1.417l-3.325-0.752l-1.001,0.602c0,0-2.453-3.283-6.547-4.888c-1.703-0.685-3.359-0.923-4.953-0.957
	c-0.129-0.004-0.266-0.007-0.388-0.004C75.098,139.943,77.203,136.717,77.244,136.642z M70.247,146.252l0.416-0.041l0.422-0.024
	l2.828-0.235c4.933,0.599,8.604,4.104,8.604,4.104s-6.738,0.681-8.904,0.331c-1.778-0.293-3.127-1.015-4.095-1.772
	c-0.088-0.067-0.176-0.132-0.259-0.21c-0.088-0.065-0.177-0.143-0.258-0.208c-1.002-0.9-1.472-1.72-1.472-1.72L70.247,146.252z
	 M60.988,187.328c-0.34,0.77-1.594,4.118-1.594,4.118s-2.481-0.263-2.76,0.834c-0.279,1.084,0.191,2.835,0.191,2.835
	s-0.361-0.314-1.996-0.137c-0.491,0.063-0.947-0.021-1.294-0.245c-0.436-0.286-0.708-0.831-0.695-1.666
	c0.007-0.752,0.246-1.733,0.797-3.002c1.683-3.842,2.31-4.298,3.243-4.438c0.913-0.146,0.286,0.104,0.286,0.104
	C59.094,185.658,61.363,186.544,60.988,187.328z M71.133,171.398c-0.075,0.069-2.221,1.962-4.926,6.189
	c-0.606,0.978-1.09,1.802-1.492,2.538c-0.252,0.457-0.47,0.88-0.654,1.254c-0.484,0.987-0.736,1.669-0.865,2.057
	c-0.185-0.077-0.361-0.152-0.545-0.23c-0.736-0.313-1.826-0.749-2.862-0.999c-0.749-0.201-1.403-0.311-1.873-0.269
	c-1.186,0.13-3.12,0.984-4.319,1.561c-0.47,0.221-0.817,0.401-0.974,0.48c0.613-1.115,1.431-2.879,1.431-4.329
	c0-0.065,0-0.131-0.007-0.198c-0.007-0.103-0.007-0.198-0.007-0.3c0-1.762,0.853-3.063,2.208-5.157l0.32-0.491
	c0.661-1.025,0.885-1.997,1.171-3.229c0.457-1.962,1.104-4.656,3.979-9.351c1.546-2.504,3.761-5.995,6.043-9.555l-1.193,2.514
	l-0.715,1.516c0,0,0.436-0.381,1.615-1.788c1.159-1.407,1.935-1.615,4.749-0.756c2.916,0.865,2.779,3.012,2.779,3.012
	s-0.872,0.757-1.935,0.68c-1.083-0.074-0.96,0.341,0.198,0.831c1.186,0.492,1.411,1.029,1.411,1.029s1.411-0.723,2.186-0.371
	c0.784,0.316,0.545,1.782-0.108,1.591c-2.023,0.272-0.347,1.314-0.347,1.314l2.146,0.151c0,0,0.893,1.014-1.063,3.542
	c-1.921,2.568-3.645,2.186-3.645,2.186l-0.92,2.862C72.107,170.451,71.405,171.126,71.133,171.398z M76.426,237.288
	c-0.096,1.424-3.495,0.791-3.495,0.791s-2.46,0.654-1.302,1.717c-1.083,0.939-2.432,2.684-6.881,2.589
	c-4.408-0.123-5.647,0-5.593-0.783c0.047-0.818,1.778-2.119,3.426-2.828c0.77-0.306,1.288-0.764,1.751-1.287
	c0.538-0.614,1.008-1.302,1.697-1.908c0.613-0.531,1.778-1.669,3.045-2.697c1.383-1.138,2.896-2.146,3.938-2.078
	C75.656,230.979,76.508,235.898,76.426,237.288z M79.942,242.043l-0.027,0.349l-0.572-0.007h-0.006l-2.855-0.021l1.472-0.512
	l0.006-0.143l0.614-6.084l-0.777-6.541l-2.119-4.366l-0.675-0.197l-0.975-0.272l-0.157-0.056l-0.633,0.361
	c0,0-0.069-0.23-0.239-0.559c-0.102-0.204-0.252-0.456-0.463-0.701c-0.075-0.089-0.137-0.178-0.184-0.266
	c-0.041-0.068-0.068-0.15-0.088-0.212c-0.007,0-0.007-0.006-0.007-0.006c-0.184-0.512-0.041-0.975-0.041-0.975
	s0.953,0.674,1.519,1.321c0.572,0.654,1.179,0.696,1.179,0.696l-1.104-1.697c0,0,0.45-0.041,1.036,0.231l0,0
	c0.068,0.027,0.136,0.061,0.205,0.096c0.416,0.237,0.878,0.619,1.294,1.267c1.09,1.662,2.541,3.985,2.875,8.203
	c0,0.026,0.007,0.055,0.007,0.081c0.021,0.376,0.048,0.757,0.062,1.132c0.177,3.836-0.055,7.344-0.055,7.344l0.79,0.259
	L79.942,242.043z M84.874,238.072c-0.694,1.171-4.959,1.294-4.959,1.294s0.592-2.617,0.654-3.59
	c0.075-1.022-0.498-4.707-0.498-4.707s2.467-0.24,4.163,1.308C85.971,233.889,85.563,236.894,84.874,238.072z M83.157,206.616
	c0.934-4.796,2.487-7.114,1.881-9.799c-0.634-2.67-1.819-9.408,0-6.057c1.785,3.352,4.932,7.617,3.679,11.373
	c-1.26,3.754-2.351,4.701-2.05,6.322c0.299,1.648,0.988,6.364-0.893,7.223C85.774,215.679,82.218,211.393,83.157,206.616z
	 M87.893,282.683c-0.034,0.027-0.055,0.063-0.068,0.075c-0.122,0.082-0.224,0.184-0.313,0.313c0.068-0.906,0.559-8.184,0.708-10.321
	c0.102,0.279,0.204,0.538,0.279,0.791c0.204,0.687,0.245,1.293-0.096,1.976c-0.027,0.04-0.027,0.067-0.047,0.102
	c-0.354,0.797-0.232,1.232-0.103,1.56c0.055,0.122,0.103,0.239,0.123,0.349c0.068,0.408,0.429-0.253,0.429-0.253
	S88.383,281.981,87.893,282.683z M94.971,297.038c0.238,0.245,0.422,0.518,0.518,0.817c0.504,1.417,0.478,1.765,0.478,1.778
	c0-0.014-0.45,1.109-4.804,0.899c-1.703-0.075-2.923-0.286-3.788-0.524c-1.008-0.266-1.533-0.579-1.771-0.743
	c0.007-0.006,0.014-0.014,0.014-0.027c0.177-0.32,0.538-0.926,1.069-1.561c0.886-1.035,2.228-2.139,4.026-2.166l0,0
	C92.225,295.491,94.038,296.05,94.971,297.038z M93.2,279.188c1.356,0.545,3.713,2.398,3.713,4.544c0,0.082-0.007,0.171-0.021,0.239
	c-0.067,0.103-0.245,0.348-0.518,0.675c-0.197,0.225-0.436,0.477-0.702,0.742c-0.886,0.857-2.146,1.765-3.481,1.669
	c-1.035-0.062-1.785-0.306-2.357-0.6c0.157-0.245,0.695-1.015,1.049-1.172c0.422-0.17,1.941,0.927,1.941,0.927
	s-0.6-0.899-0.654-1.703c0-0.02-0.013-0.041-0.013-0.055c-0.062-0.79,1.097-1.444,1.097-1.444s-1.199,0.116-1.676-0.606
	c-0.45-0.729,0.198-1.301,0.198-1.301s2.97,2.119,2.507,1.689c-0.464-0.443-3.086-3.762-2.289-3.597
	c0.286,0.054,0.491,0.061,0.647,0.026c0.163-0.034,0.245-0.115,0.21-0.259C92.947,279.059,93.07,279.133,93.2,279.188z
	 M92.511,278.507c-0.123-0.108-0.265-0.205-0.436-0.301c-0.538-0.299-1.179-0.504-1.179-0.504s0.681-0.905,1.206-1.668
	c0.177-0.26,0.333-0.505,0.45-0.682c-0.137,0.742-0.232,1.438-0.232,2.023C92.321,277.812,92.375,278.2,92.511,278.507z
	 M91.803,264.193c0.116-0.056,0.238-0.109,0.34-0.157c0.136-0.068,0.279-0.137,0.402-0.198c-0.198,0.613-0.409,1.485-0.409,2.563
	c0,0.266,0.014,0.552,0.048,0.837c0.109,1.063,0.341,1.568,0.552,2.024c0.211,0.449,0.389,0.844,0.389,1.812
	c0,0.205-0.014,0.443-0.034,0.716c-0.034,0.565-0.123,1.178-0.225,1.791c-0.014-0.448-0.062-0.893-0.157-1.253
	c-0.013-0.047-0.027-0.109-0.034-0.156c-0.239-0.839-2.589-0.586-2.589-0.586l0.572-1.069c0,0,1.561-0.621,1.608-1.403
	c0-0.042-0.006-0.083-0.006-0.123c-0.014-0.218-0.089-0.416-0.205-0.579c-0.259-0.416-0.682-0.668-0.682-0.668l0.477-2.241
	l0.109-0.457c0,0-0.014,0-0.041,0c-0.307,0.021-2.814,0.191-4.319-0.211c-0.709-0.177-1.172-0.858-1.485-1.547
	c-0.095-0.225-0.185-0.449-0.246-0.661c0.02-0.196,0.027-0.319,0.027-0.319c0.041-0.6,0.129-0.927,0.19-1.076
	c0.007,0.007,0.068,0.135,0.123,0.272c0.041,0.074,0.075,0.149,0.102,0.212c0.047,0.107,0.082,0.19,0.082,0.19
	c0.067,0.156,0.136,0.332,0.218,0.51c0.422,0.975,1.138,2.188,2.698,2.372h0.007c0.613,0.067,1.376-0.138,2.071-0.416
	C91.524,264.316,91.667,264.254,91.803,264.193z M96.832,239.298c-0.865-0.455-1.642-1.335-1.976-2.942
	c-0.047-0.267-0.095-0.546-0.123-0.853c-0.415-5.3-0.694-4.087-0.694-4.087l-0.552,1.995c0,0-3.175-1.034-4.483-5.573
	c-1.315-4.543-0.933-9.619-0.232-11.757c2.548-7.509,2.984,0.81,3.904,2.097c0.934,1.261,1.99,0.75,0.531-1.799
	c-1.431-2.513-0.873-5.089,1.983-2.077c2.813,3.012,4.755,3.965,0.64-3.999c-4.094-7.964-2.336-10.267-2.336-10.267
	s-0.354-3.865,7.63,0.919c0,0,4.551,4.156,5.784,9.483c1.281,5.355,2.14,10.655,1.07,14.43c-1.07,3.769-1.391-3.529-1.757-6.595
	c-0.416-3.046-1.431-3.121-2.453,0.041c-1.028,3.167-1.138,4.593-1.138,4.593s-0.967-5.751-1.424-4.968
	c-0.463,0.783-2.187,8.155-0.532,10.895c1.574,2.719,2.657,5.027,2.657,5.027s-2.479,1.247-3.611-3.093
	c-1.138-4.293-1.158-9.565-1.158-9.565l-0.927,1.566l-2.023-3.188c0,0,1.485,5.157,1.601,6.596c0.108,1.403,2.589,6.438,2.439,8.639
	c-0.157,2.234,0.272,4.878,0.272,4.878S98.289,240.075,96.832,239.298z M100.428,250.042c-0.149,0.409-0.626-0.477-1.104-0.933
	c-0.096-0.089-0.191-0.157-0.286-0.198l0.014-0.034c0.19-0.619,0.449-1.451,0.824-2.31c0.75-1.765,1.942-3.624,3.938-3.862
	c1.077-0.123,2.038,0.013,2.644,0.348c0.082,0.047,0.157,0.095,0.225,0.142c0.042,0.034,0.089,0.069,0.13,0.109
	c0.143,0.137,0.238,0.3,0.292,0.491c0.034,0.102,0.055,0.218,0.055,0.327c0,0.04,0,0.074-0.014,0.115
	c-0.041,0.674-0.327,1.349-0.633,2.071c-0.102,0.238-0.204,0.49-0.3,0.743c-0.082,0.211-0.15,0.422-0.211,0.641
	c-0.047,0.156-0.095,0.306-0.116,0.47c-0.048,0.218-0.075,0.442-0.075,0.668c0,0.047,0,0.088,0.013,0.136c0,0.021,0,0.034,0,0.048
	c0.034,0.633,0.246,1.321,0.512,2.105c0.061,0.163,0.115,0.326,0.177,0.504c0.021,0.041,0.034,0.096,0.055,0.15
	c0.422,1.199,0.893,2.548,0.995,4.067c0.055,0.593,0.075,1.056,0.075,1.423c0,0.103-0.014,0.17-0.014,0.252
	c-0.095-0.218-0.211-0.442-0.334-0.668c-0.259-0.456-0.578-0.885-1.001-1.144c-0.388-0.252-0.818-0.314-1.268-0.205
	c-0.014,0-0.014,0-0.027,0.007c-0.292,0.068-0.586,0.226-0.872,0.437c-0.94,0.682-1.86,1.941-2.528,2.997
	c-0.123,0.185-0.238,0.376-0.347,0.553c0.034-1.813,0.109-6.759,0.109-6.759l-0.143-0.096c0-0.007-0.034-0.027-0.088-0.075
	c0.021-0.088,0.041-0.218,0.062-0.354c0.034-0.239,0.075-0.524,0.15-0.893c0.545-5.226-0.559-3.87-0.559-3.87
	S100.639,249.442,100.428,250.042z M108.549,271.523c-0.368,0.021-0.708,0.021-1.008,0.021c-1.485-0.041-2.262-0.348-3.625,0.075
	c-1.668,0.504-3.951,1.647-3.951,1.647s-0.252-1.034,0.578-1.266c0.838-0.267,2.923-1.432,5.035-1.295
	c0.9,0.061,1.526,0.211,1.962,0.3c0.593,0.123,0.845,0.123,0.879-0.396c0.061-0.927-0.007-1.227-0.299-1.24
	c-0.225-0.021-0.45,0.212-0.566,0.348c-0.047,0.062-0.081,0.103-0.081,0.103s-0.498-0.333-1.397-0.389
	c-0.899-0.062-0.463-0.347,0.034-0.531c0.504-0.129-0.538-1.009,0.313-1.567c0.845-0.565,0.879-0.96-0.041-0.816
	c-0.927,0.136-2.705,0.926-2.705,0.926s0.313-1.588-0.402-1.335c-0.545,0.204-1.662,0.981-2.172,1.362
	c-0.164,0.109-0.273,0.185-0.273,0.185s-1.042,0.115,0.45-0.873c0.048-0.027,0.075-0.055,0.123-0.081
	c1.704-1.104,1.717-1.309,2.834-1.438c1.274-0.15,2.637,0.205,3.4,0.449c0.361,0.13,0.593,0.226,0.593,0.226l2.152,5.708
	c0,0,0.028,0.906-0.551,0.865c-0.225-0.014-0.143-0.184-0.075-0.382C109.877,271.811,109.959,271.414,108.549,271.523z
	 M119.021,303.688c0.47,1.069,0.694,1.819,0.817,2.35c-0.382-0.36-0.913-0.749-1.629-1.028c-0.53-0.197-1.165-0.348-1.927-0.354
	c0-0.007-0.014-0.007-0.021-0.007c-1.227-0.035-2.473,0.422-3.523,0.986c-0.783,0.417-1.464,0.893-1.961,1.289
	c-0.109,0.088-0.232,0.17-0.328,0.258c-0.014-1.13-0.095-3.311-0.599-4.674c-0.368-0.967-0.647-1.355-0.879-1.525
	c0.252-0.831,1.015-3.297,2.057-5.839c0.682-1.642,1.022-3.393,1.022-5.027c0-1.356-0.231-2.631-0.709-3.706
	c-0.021-0.042-0.048-0.076-0.068-0.116c0.102-0.007,0.198-0.021,0.307-0.041c0.014,0,0.027-0.014,0.041-0.014
	c0.906-0.231,0.573-0.899,0.573-0.899s-1.077-0.081-1.036-0.599c0.034-0.545,1.165-1.282,2.269-1.745
	c1.11-0.477,2.426,0.027,2.426,0.027l0.239-1.321c0,0-2.317-0.402-4.225,0.082c-0.047,0.006-0.088,0.02-0.129,0.033
	c-0.027,0-0.047,0.014-0.062,0.021c-0.893,0.266-1.491,0.776-1.894,1.24c-0.082,0.108-0.164,0.211-0.232,0.307
	c-0.109-0.259-0.184-0.478-0.184-0.702c0-0.265,0.096-0.51,0.293-0.763c0.089-0.116,0.184-0.231,0.314-0.341
	c0.109-0.095,0.217-0.184,0.319-0.265c1.663-1.323,3.604-1.902,3.734-1.936c0.129-0.014,1.533-0.123,1.533-0.123
	c0.347-0.047,0.647-0.089,0.913-0.095c0.245-0.008,0.463,0.013,0.668,0.088c0.19,0.056,0.381,0.163,0.558,0.327
	c0.061,0.041,0.103,0.082,0.15,0.13c0.143,0.144,0.231,0.313,0.279,0.51c0.054,0.178,0.081,0.368,0.081,0.566
	c0,0.504-0.129,1.069-0.279,1.6c-0.04,0.158-0.088,0.314-0.128,0.465c-0.021,0.075-0.042,0.149-0.068,0.225l0,0l-0.171,0.723
	l-0.123,0.504c-0.068,0.927-0.259,9.477-0.266,9.838C117.208,294.449,117.821,301.023,119.021,303.688z M120.513,284.55
	c-0.764,1.083-1.799,0.838-2.433,0.191c0.014-0.185,0.014-0.328,0.014-0.402c0,0,0.068-0.266,0.136-0.519
	c0.068-0.279,0.143-0.559,0.143-0.559c0.143-0.483,0.313-1.042,0.409-1.601c0.116-0.075,0.225-0.144,0.348-0.225
	c0.491-0.327,1.226-0.416,1.765-0.436c0.034,0.047,0.074,0.102,0.129,0.142c0.075,0.055,0.164,0.089,0.266,0.096
	c0.109,0,0.211-0.041,0.307-0.115l0.123,0.681l0.164,0.872l0.136,0.771C122.018,283.446,121.637,282.996,120.513,284.55z
	 M118.749,271.169c0-0.212,0.027-0.422,0.082-0.633c0.054-0.219,0.299-1.268,0.436-2.453c0.054,0.068,0.102,0.136,0.157,0.204
	c0,0,0.075,0.096,0.136,0.177c0.082,0.606,0.109,1.214,0.109,1.786c0,1.314-0.19,2.432-0.558,2.956
	c-0.042,0.061-0.103,0.163-0.151,0.231c0-0.456-0.054-0.872-0.102-1.26C118.802,271.815,118.749,271.489,118.749,271.169z
	 M132.47,286.595c0.041,0.053,0.096,0.128,0.143,0.209c0.504,0.805,1.246,2.924,1.315,3.933c0.075,1.076-0.743,1.021-0.743,1.021
	s-0.021-0.014-0.068-0.041c-0.191-0.115-0.763-0.415-1.642-0.477c-1.069-0.075-1.587,1.492-3.216,1.532
	c-1.607,0.007-1.703-0.668-1.594-2.146c0.096-1.479,0.273-1.997,0.273-1.997s-1.472-0.238-2.29-0.156
	c-0.831,0.096-2.664-0.729-0.62-0.586c1.989,0.13,1.492-0.286,1.492-0.286l0.17-0.798l0.551,0.028c0,0-0.087-0.811-1.437-0.647
	c-1.356,0.205-4.074,0.402-1.445-0.504c2.617-0.899,4.088-0.798,4.088-0.798C129.908,284.373,131.952,286.008,132.47,286.595z
	 M128.92,272.974c0,0.008,0.913,1.316,0.913,1.316c0.627,0.844,1.036,1.423,1.036,1.981c0,0.028,0,0.049,0,0.075
	c-0.007,0.123-0.034,0.32-0.164,0.361c-0.034,0.007-0.095,0.007-0.163,0c-0.143-0.021-0.341-0.095-0.594-0.272
	c-0.251-0.164-0.551-0.43-0.906-0.824c-0.422-0.483-0.947-1.009-1.58-1.308c-0.32-0.144-0.668-0.239-1.043-0.239
	c-1.008,0.007-2.037,0.653-3.154,1.982c-1.492,1.751-1.846,2.827-1.867,3.454c0,0.014,0,0.034,0,0.048
	c0,0.212,0.041,0.354,0.082,0.463c-0.041,0.13-0.082,0.239-0.123,0.342c-0.021-0.028-0.034-0.083-0.034-0.083
	c-0.014-0.115-0.055-0.265-0.089-0.436c-0.089-0.463-0.198-1.109-0.198-1.737c0-0.32,0.041-0.641,0.103-0.926
	c0.074-0.328,0.197-0.621,0.387-0.846c0.627-0.661,1.043-1.866,1.043-3.216c0-0.899-0.178-1.859-0.607-2.766
	c-0.197-0.463-0.449-0.879-0.701-1.26c-0.164-0.239-0.32-0.478-0.491-0.702c-0.198-0.259-0.409-0.524-0.6-0.777
	c-0.708-0.886-1.302-1.648-1.451-2.52c-0.061-0.369-0.082-0.736-0.082-1.07c0-0.798,0.129-1.465,0.231-1.97l0.103-0.646
	c0-0.021,0-0.035,0-0.055c0-0.252-0.137-0.442-0.239-0.573c-0.089-0.107-0.191-0.237-0.191-0.49c0-0.061,0.014-0.136,0.028-0.217
	c0.074-0.375,0.327-0.954,0.974-1.896l0.566-0.803c0.559-0.798,1.069-1.533,1.607-2.201c0.94-1.144,1.969-2.05,3.372-2.574
	c0.014-0.007,0.034-0.014,0.048-0.014c0.136-0.049,0.273-0.103,0.416-0.144c0.075-0.021,0.143-0.054,0.217-0.082
	c0.041,0.102,0.055,0.226,0.068,0.361c0,0.021,0.014,0.048,0.014,0.074l0,0c0,0.186-0.061,0.382-0.177,0.586
	c-0.034,0.062-0.075,0.123-0.13,0.179c-0.04,0.054-0.082,0.107-0.136,0.156c-0.035,0.034-0.062,0.075-0.095,0.123
	c-0.083,0.162-0.13,0.428-0.13,0.858c0,0.326,0.027,0.77,0.082,1.328c0,0.02,0,0.047,0.007,0.061
	c0.068,0.791,0.191,1.812,0.354,3.175l0.041,0.342l0.279,2.636l0.123,1.11c0.013,0.171,0.02,0.348,0.054,0.518
	c0.028,0.307,0.062,0.614,0.115,0.934C126.726,267.811,127.973,271.51,128.92,272.974z M120.499,243.958
	c0.313,1.261,1.642,7.951,1.642,7.951l-1.438,3.134c0,0-2.207-9.027-1.765-11.854c0.457-2.787,1.158-3.264,1.704-3.113
	C121.146,240.252,120.199,242.753,120.499,243.958z M122.917,240.375c0.28,1.506,1.11,11.118,1.11,11.118s-1.505-5.198-2.084-8.769
	C121.371,239.189,122.611,238.868,122.917,240.375z M126.481,260.937l-0.143-1.316l-0.055-0.456
	c-0.109-0.974-0.259-2.133-0.347-3.093c0-0.02,0-0.034,0-0.054c0.027-0.805,0.123-1.54,0.252-2.201
	c0.027-0.033,0.041-0.068,0.061-0.103c0.021-0.026,0.034-0.062,0.047-0.088c0.042-0.082,0.083-0.157,0.117-0.239
	c0.251,0.26,0.64,0.757,0.987,1.336C127.374,254.873,126.876,258.259,126.481,260.937z M128.287,254.062
	c-0.062,0.191-0.157,0.328-0.239,0.437c0,0.007-0.006,0.007-0.006,0.014c-0.007-0.014-0.007-0.027-0.007-0.049
	c-0.19-0.953-1.145-1.695-1.465-1.921c0-0.108-0.013-0.259-0.013-0.422c-0.021-0.082-0.021-0.156-0.034-0.252
	c0.225,0.021,0.442,0.034,0.442,0.034c0.464,0.033,0.811,0.605,1.097,1.158c0.048,0.089,0.083,0.17,0.123,0.252l0.15,0.266
	c0.006,0.041,0.013,0.088,0.013,0.157C128.348,253.823,128.334,253.94,128.287,254.062z M135.12,212.02
	c-0.17,0.674-0.333,1.328-0.504,1.935c-0.102,0.368-0.211,0.708-0.306,1.042c-0.123,0.354-0.232,0.683-0.327,0.981
	c-0.007,0.014-0.007,0.027-0.021,0.041c-0.273,0.817-0.505,1.383-0.586,1.613c-0.034,0.076-0.055,0.117-0.055,0.117l-0.279,1.11
	l-0.927,3.659c-0.026,0.237-0.068,0.496-0.108,0.776c-0.361,2.309-0.968,5.777-1.268,7.433c-0.102,0.572-0.164,0.934-0.164,0.934
	s0.048,0.115,0.082,0.293c0.075,0.368,0.149,1.042-0.218,1.71c-0.021,0.041-0.04,0.089-0.061,0.143
	c-0.075,0.212-0.143,0.525-0.198,0.92c-0.191,1.295-0.368,3.386-1.376,5.09c-0.157,0.266-0.313,0.572-0.483,0.898
	c-0.797,1.607-1.669,3.796-2.426,5.035c-0.123,0.19-0.225,0.354-0.34,0.498c-0.321,0.415-0.606,0.579-0.846,0.354
	c-0.108-0.089-0.19-0.272-0.279-0.531c-0.641-2.03-0.442-8.632,0.518-12.168c1.089-3.972,4.857-14.089,3.992-14.089
	c-2.017,0.014-9.661,8.435-9.865,11.479c-0.205,3.011,0.436,5.668,1.526,7.175c1.118,1.478,0.328,1.212-0.872,0.728
	c-1.158-0.456-3.508-4.863-2.5-7.65c0.995-2.752,6.029-8.277,6.029-8.277l6.316-6.848c0,0,0.94,1.084,1.717,2.311
	c-0.518-2.283-1.226-4.694-1.969-4.743c-1.383-0.088-6.029,8.681-6.029,8.681s-0.429-2.643-1.314-4.552
	c-0.893-1.865-1.465-2.105-1.465-2.105l1.382,0.308l-2.2-3.182l2.213-0.047c0,0-0.823-2.508-4.175-3.734
	c-3.379-1.24-5.525-2.187-4.865-2.972c0.661-0.741,3.223,0.014,3.223,0.014s-0.866-2.274,1.593-5.341
	c0.573-0.728,1.077-1.312,1.506-1.786c1.363-1.523,1.887-1.921,0.981-2.3c-0.327-0.133-0.75,0.109-1.179,0.521
	c-1.118,1.063-2.309,3.293-2.309,3.293l1.015-2.958l-2.078,0.477c0,0,1.417-2.764,2.697-3.665c0.75-0.559,0.845-1.017,0.32-1.149
	c-0.354-0.095-0.975-0.036-1.887,0.221c-2.262,0.665-1.73-1.13,0.872-3.773c2.589-2.65,3.924-4.196,3.924-4.196l0.524,0.389
	c0.007,0.112,0.014,0.231,0.027,0.351c0.361,3.662,3.005,6.485,6.206,6.708c1.016,0.074,1.854-0.157,2.542-0.566l0.314,0.238
	c0,0,0.3,0.463,0.736,1.253c0.919,1.656,2.487,4.764,3.338,7.987c0.279,1.063,0.476,2.118,0.558,3.147
	C135.951,207.488,135.597,209.914,135.12,212.02z M122.897,183.621c0,0,1.723,1.302,2.534,1.37c0.81,0.048,2.624-0.031,2.624-0.031
	s-0.913,1.358-2.297,1.27C124.341,186.135,122.897,183.621,122.897,183.621z M133.866,187.272c0,0-1.82,1.603-2.092,2.511
	c-0.258,0.889-0.436,2.095-0.837,2.153c-0.423,0.092-0.504-0.437-0.504-0.437s-0.368,0.096-0.872,0.168
	c-0.43,0.061-0.954,0.111-1.465,0.074c-1.103-0.074-2.439-0.975-2.439-0.975s1.376,0.301,2.392,0.361
	c0.225,0.021,0.477-0.004,0.723-0.04c0.865-0.13,1.737-0.491,1.737-0.491s0.463-2.302,1.369-3.546
	c0.034-0.051,0.055-0.089,0.096-0.143c0.763-1.135,0.796-1.544,0.844-2.215c0.048-0.719,0.968-0.542,0.519-1.598
	c-0.151-0.354-0.273-0.606-0.417-0.801c-0.272-0.382-0.579-0.514-1.089-0.616c-0.811-0.164-2.364,1.777-2.364,1.777l0.109-0.483
	c-0.572,0.056-1.561-2.508-3.4-2.974c-2.194-0.563-2.671,0.427-3.141,1.588c-0.279,0.698-0.538-0.065-0.702-0.814
	c-0.123-0.527-0.184-1.049-0.184-1.049l0.218-2.311l-1.423-2.224c0,0,6.52-5.212,8.339-5.297c2.044-0.096,5.341,1.387,5.859,1.624
	c0.048,0.018,0.075,0.037,0.075,0.037l-0.157,0.665c-0.027,0.011-0.047,0.018-0.068,0.027c-0.626,0.275-1.036,0.385-1.036,0.385
	l-0.096,0.682l-4.537-1.111l-0.688,0.532c-0.144,0.033-0.28,0.075-0.375,0.126c-0.796,0.398-2.541,1.765-3.924,2.898
	c-0.096,0.134-0.26,0.371-0.402,0.635c-0.328,0.633-0.525,1.464,0.538,1.654c1.683,0.308,3.154,0.6,3.475,1.295
	c-0.136-0.473-0.389-1.321-0.77-2.108c-0.715-1.469,1.669-0.896,2.746,1.183c0.306,0.612,0.47,1.116,0.532,1.552l1.28,0.083
	c0,0,0.832,1.161,1.356,1.457c0.047,0.027,0.095,0.063,0.143,0.069c0.511,0.121,0.545-0.253,0.545-0.253l0.307-0.79l0.306,0.776
	c-0.286,0.197-0.497,0.464-0.463,0.812c0.034,0.735-0.089,1.304-0.089,1.304l0.457,0.553c0,0-1.015,1.651-0.205,1.386
	c0.559-0.16,1.125-0.429,1.602-0.756l0.225,0.592L133.866,187.272z M133.641,179.432c-0.034-0.048-0.068-0.089-0.109-0.123
	c-0.47-0.531-0.456-0.767-0.258-0.827l0.286,0.722L133.641,179.432z M136.359,184.79l-0.122-0.052l-0.28-0.119
	c0,0,0.088-0.122,0.15-0.343c0.081-0.229,0.143-0.563,0.102-0.979l-1.138-1.306c0,0,1.015,0.48,1.138,1.306l0.081,0.813l0.048,0.463
	l0.027,0.208v0.008H136.359z M147.227,188.608c0.422-0.797,1.771-3.563,1.771-5.791c0-1.001-0.272-1.895-1.042-2.446
	c-1.642-1.185-2.813-0.081-3.672,0.733c-0.729,0.69-1.097,0.97-1.513,0.731c-0.429-0.252-0.504-0.541-0.504-1.021
	c0-0.089,0-0.201,0-0.314c0.007-0.112,0.014-0.231,0.014-0.361c0-0.688-0.143-1.465-1.274-2.071
	c-1.533-0.811-3.392-0.971-4.483-1.001c0.702-0.606,1.723-1.499,1.84-1.608c0.225-0.007,3.754-0.109,3.992-0.118
	c0.45,0.391,2.909,2.438,3.979,3.076c2.616,1.735,6.322,2.607,6.725,2.694c0.142,0.102,1.178,0.807,2.391,1.747
	c0.824,0.646,1.723,1.403,2.473,2.156c0.218,0.215,0.416,0.425,0.6,0.633c1.813,2.086,3.454,4.82,3.468,4.852l0.075,0.103
	c0,0,1.192,0.392,1.485,0.487c0.027,0.217,0.075,0.579,0.075,0.997c0,0.105,0,0.229-0.014,0.345
	c-0.02,0.407-0.293,2.473-2.847,2.303l-1.485-0.072c-2.297-0.102-4.906-0.207-6.752-1.435
	C150.571,191.882,147.921,189.296,147.227,188.608z M155.893,221.926c-0.477-0.525-1.506-1.9-1.506-1.9l0.45-0.384l1.88,2.134
	c0,0-0.483,1.192-0.667,2.193c-0.157,0.987-0.422,1.99-0.422,1.99s-0.075-2.018-0.443-2.563c-0.102-0.143-0.3-0.333-0.511-0.518
	c-0.306-0.271-0.661-0.538-0.933-0.736c-0.211-0.156-0.375-0.265-0.375-0.265s1.485,0.306,1.874,0.729
	C155.627,223.05,156.342,222.477,155.893,221.926z M155.279,222.001l-3.092-2.038c0,0,0.851-0.559,1.389,0.089
	C154.148,220.698,155.279,222.001,155.279,222.001z M150.21,220.754c-0.484-0.151-1.069-0.096-0.845-0.872
	c0.129-0.512,0.333-0.593,1.145-0.531c0.811,0.054,1.253,0.898,2.105,1.45c0.872,0.56,0.259,1.036-0.136,0.694
	C152.098,221.169,150.701,220.876,150.21,220.754z M151.226,222.143c-0.245,0.586-1.226,0.109-1.226,0.109l0.068-1.008
	C150.067,221.244,151.471,221.537,151.226,222.143z M148.643,218.613c0-0.033,0-0.047,0.007-0.088
	c0.157-1.124,1.54-0.511,2.043-0.47c0.518,0.034,1.676,0.519,1.676,0.519s-0.633,0.251-1.621,0.292
	c-0.77,0.021-1.662,0.389-1.989,0.136C148.67,218.928,148.629,218.805,148.643,218.613z M145.278,241.186
	c0.088,0.068,0.218,0.184,0.354,0.293c0.334,0.271,0.715,0.586,0.715,0.586l0.157-0.449c0.225-0.654,0.729-1.54,1.083-1.52h0.006
	l0.443,0.02c0.49,0.021,0.538,0.041,0.592,0.116c-0.014,0-0.04,0.279-0.04,0.279c-0.035,0.149-0.062,0.32-0.062,0.512
	c0,0.218,0.042,0.462,0.184,0.728c0,0,0.218,0.362,0.416,0.71c-0.034,0.027-0.171,0.211-0.3,0.388
	c-0.307-0.19-0.722-0.43-0.974-0.456c-0.286-0.021-0.763,0.225-1.145,0.456c-0.109-0.184-0.259-0.335-0.491-0.368
	c-0.3-0.006-0.75,0.143-0.961,0.226c-0.034-0.021-0.081-0.034-0.136-0.048c-0.075-0.021-0.177-0.055-0.306-0.096
	C144.93,242.208,145.121,241.642,145.278,241.186z M149.692,244.857l0.075-1.098c0,0,1.036,0.975,1.533,1.33
	c0.484,0.319-0.089,1.301-0.231,1.696c-0.116,0.401,0.157,0.83-0.129,0.694c-0.32-0.109-0.777,0.682-1.247,1.752
	c-0.457,1.075-0.627,1.961-0.627,1.961l-0.694-1.961c0,0,0.443-0.465,0.995-0.839c0.517-0.375,0.498-1.683,0.498-1.683
	s0.347,0.722,0.375-0.886C150.23,244.196,149.692,244.857,149.692,244.857z M149.733,242.854L149.733,242.854l0.007,0.008
	L149.733,242.854z M144.644,251.433c-0.544,0.148-1.11,0.299-1.594,0.374c-1.125,0.163-2.385,0.252-2.692,0.286
	c-0.02,0.008-0.027,0.021-0.041,0.021c-0.068,0-0.041-0.008,0.041-0.021c0.266-0.095,0.471-1.525,1.173-3.216
	c0.735-1.777,0.926-2.991,0.926-2.991s1.009-0.225,1.839-0.456c0.825-0.272,2.828-0.014,2.828-0.014s-0.109,1.602,0.205,1.607
	c0.3,0.028,0.497-1.157,0.872-1.123c0.389,0.026,0.163,0.497,0.163,0.497s0.756-0.565,0.491,0.442
	c-0.265,1.009-1.751,1.813-2.064,2.078c-0.265,0.238-0.177,1.274-0.129,1.662c0,0.103,0.014,0.164,0.014,0.164
	S145.707,251.119,144.644,251.433z M158.175,259.792l-0.047,0.722c0,0-0.839,1.219-4.251,1.268c-0.313,0-0.641,0-0.995-0.021
	c-4.205-0.171-4.96-0.947-5.724-1.9c-0.742-0.954-0.272-1.942-0.095-4.552c0.184-2.61,0.04-3.631,0.04-3.631
	s0.021,0.021,0.042,0.041c0.19,0.163,1.24,1.083,1.71,1.293l-0.634,6.221c0,0-0.095,1.595,4.306,1.813
	C156.962,261.249,158.175,259.792,158.175,259.792z M155.708,246.949c0.102-0.185,0.177-0.333,0.238-0.327
	c0.205,0.015,0.702,0.041,0.702,0.041l0.096,0.504l0.429,2.044c0,0,0.504,1.464-0.198,1.615c-0.701,0.156-1.233-1.098-1.56-1.01
	c-0.293,0.069-1.268,1.111-1.268,1.111s0.566,0.565,0.545,0.975c-0.027,0.375-0.042,1.806-0.457,1.887
	c-0.409,0.056-0.348-2.058-1.451-2.133c-1.138-0.075-1.595,1.111-1.908,1.084c-0.286-0.007-0.217-1.028-0.217-1.028l0.462-0.988
	c0,0,0.089,0.122,0.498,0.034c0.409-0.062,0.559-0.954,0.593-1.479c0.041-0.491-0.457-0.525-0.457-0.525s0.436-0.374,0.498-1.185
	c0.041-0.812-0.123-1.411,0.797-1.751c0.667-0.245,1.158,1.063,1.553,1.295C155.102,248.019,155.47,247.379,155.708,246.949z
	 M157.392,237.819c0,0.068,0,0.13,0,0.19c-0.076,1.077-0.443,2.528-0.668,3.326c-0.13-0.123-0.279-0.239-0.443-0.321
	c-0.177-0.074-0.347-0.123-0.538-0.088c-0.272,0.027-0.449,0.238-0.62,0.456c-0.333,0.402-0.797,0.954-2.316,0.851
	c-1.124-0.073-1.908-0.353-2.33-0.837c-0.278-0.32-0.408-0.749-0.408-1.294c0-0.083,0-0.157,0.006-0.253c0-0.067,0-0.149,0-0.225
	c0-1.355-0.674-3.331-0.893-3.951c0.314-0.327,1.057-1.206,1.213-2.248l0.021-0.13c0.144-0.933,0.355-2.214,0.355-3.283
	c0-0.389-0.028-0.744-0.089-1.05c-0.116-0.572-0.47-1.076-0.817-1.553c-0.226-0.321-0.45-0.641-0.627-0.988
	c0.082,0.007,0.164,0.014,0.273,0.027c1.13,0.068,1.192-0.913,2.398-1.036c1.232-0.115,1.369,0.709,1.369,0.709
	s0.225,5.777,0.211,7.289c0.021,1.513,0.804,1.568,0.477,1.956c-0.307,0.354-1.247-0.811-1.669-0.641
	c-0.416,0.178,1.151,1.097,0.722,1.472c-0.443,0.381-1.219-1.506-1.649-1.124c-0.436,0.381,0.989,1.784,1.895,1.765
	c0.906-0.068,2.03-1.594,2.03-1.594l-0.859-0.777c0,0-0.041-6.669,0.041-7.869c0.082-1.212-1.513-1.847-2.2-1.976
	c-0.715-0.137-1.656,0.382-2.173,0.75c-0.321,0.225-0.817-0.138-1.151-0.47c0.027-0.683,0.231-1.303,0.538-1.555
	c0.137-0.108,0.287-0.143,0.464-0.081l1.11,0.478c1.008,0.476,1.88,0.892,2.18,0.251c0.041-0.081,0.068-0.163,0.068-0.238
	c0-0.32-0.306-0.613-0.585-0.899c-0.3-0.3-0.45-0.505-0.498-0.661c0.586,0.185,1.806,0.668,2.357,1.657
	c0.219,0.395,0.28,1.177,0.28,2.07c0,0.551-0.027,1.15-0.048,1.723c-0.027,0.635-0.042,1.193-0.042,1.691
	c0,1.103,0.096,1.845,0.451,2.2l0.068,0.074c0.442,0.442,0.736,0.75,0.914,1.11c0.108,0.238,0.17,0.512,0.17,0.858
	c0,0.075,0,0.15,0,0.231c-0.014,0.048-0.014,0.096-0.014,0.138c0,0.579,0.238,1.163,0.483,1.783
	C157.119,236.402,157.392,237.091,157.392,237.819z M156.948,221.299c0,0-1.287-1.895-2.296-1.955
	c-1.021-0.068-1.968-0.751-1.968-0.751s1.199,0.076,1.866-0.687c0.647-0.771,1.771-2.303,1.771-2.303s1.261,2.099,1.206,2.908
	C157.439,219.731,156.948,221.299,156.948,221.299z M155.667,197.043c2.405,1.389,4.429,2.555,5.395,3.115
	c-0.169,0.014-0.353,0.026-0.401,0.026C160.545,200.111,157.875,198.432,155.667,197.043z M164.416,214.594
	c-0.062-0.067-0.171-0.19-0.321-0.347c-0.77-0.858-2.466-2.854-3.236-4.579c-0.667-1.431-1.05-3.508-1.05-5.205
	c0-0.612,0.062-1.164,0.157-1.628c0.055-0.23,0.116-0.449,0.19-0.619c0.211-0.437,0.43-0.702,0.62-0.735
	c0.055-0.007,0.103,0.02,0.144,0.033c-0.116,0.3-0.3,0.851-0.45,1.574c-0.136,0.64-0.244,1.417-0.244,2.289
	c0,1.116,0.17,2.363,0.708,3.617l0.007,0.041l0.033,0.027c0.505,0.688,1.03,1.206,1.526,1.71c0.6,0.579,1.151,1.145,1.636,1.915
	c0.082,0.129,0.157,0.237,0.238,0.367c0.443,0.661,0.9,1.233,1.267,1.628C165.063,214.643,164.552,214.608,164.416,214.594z
	 M165.758,213.246c0.02-0.068,0.04-0.104,0.075-0.178c0.272,0.443,0.333,0.538,0.633,1.042
	C166.268,213.878,166.009,213.58,165.758,213.246z M169.43,208.524c-0.225-0.436-0.667-1.146-1.328-1.355
	c-0.294-0.089-0.566-0.239-0.804-0.396c0.667-0.061,1.492-0.061,1.948,0.273c0.511,0.348,1.268,0.437,1.949,0.429
	C170.363,207.973,169.729,208.347,169.43,208.524z M168.538,204.981l-0.709,0.021c-1.689,0.039-2.459,0.067-3.032-0.587
	c-0.477-0.545-0.6-0.968-0.62-1.145c0.246-0.3,1.499-1.662,3.181-0.606c1.929,1.253,3.748,2.153,4.047,2.31
	c0.028,0.028,0.185,0.211,0.328,0.381C170.935,205.159,169.784,204.947,168.538,204.981z M172.495,203.455l-1.28-0.96
	c-1.928-1.473-3.202-2.446-6.112-2.809c-1.274-0.089-2.303,0.185-2.772,0.336c-0.136-0.23-0.232-0.46-0.232-0.571
	c0-0.024,0.007-0.045,0.014-0.051c0-0.019,0.088-0.062,0.341-0.044c1.362,0.085,4.966,0.322,7.078,1.264h0.006
	c2.099,0.935,4.007,2.726,5.206,4.028c0.612,0.668,1.048,1.212,1.233,1.444c-0.047,0.108-0.144,0.313-0.252,0.578
	c-0.068,0.164-0.157,0.361-0.252,0.573C175.105,206.316,174.288,204.805,172.495,203.455z M174.961,202.277
	c0.042,0,0.048,0,0.076-0.015c0.027,0.083,0.047,0.15,0.068,0.232C175.071,202.42,175.009,202.352,174.961,202.277z M175.977,216.06
	c-0.777,3.106-0.906,3.1-1.485,3.06c-0.014-0.028-0.021-0.055-0.021-0.109c0-0.43,0.606-1.629,0.818-2.052l0.068-0.143
	c0.422-0.879,0.621-2.963,0.621-4.482c0-0.334-0.014-0.661-0.034-0.92c0-0.123-0.013-0.238-0.013-0.361
	c0-0.416,0.054-0.791,0.116-1.069c0.088,0.422,0.299,1.512,0.299,2.936C176.345,213.866,176.249,214.948,175.977,216.06z
	 M173.837,192.505c-0.722,2.405-0.974,3.805-1.07,4.422c-0.034,0.245-0.04,0.361-0.04,0.361l-0.109-0.007l-0.668-0.041h-0.014
	l-0.014-0.003l0.014,0.022l0,0l0.477,0.55l0.45,0.514l0.252,0.723l0.402,1.126l1.458-0.082l0,0c0.096,0.197,0.191,0.416,0.273,0.647
	c0.014,0.062,0.041,0.108,0.061,0.163v0.007c0.062,0.211,0.13,0.423,0.204,0.647l-1.635,0.156l-0.231,0.027
	c-0.191-0.184-0.382-0.354-0.593-0.511l0,0l-0.027-0.096l-0.524-1.841l-0.566-2.01v-0.007l-0.014-0.037c0,0,0.3-4.438,0.995-5.788
	c0.708-1.376,3.665-3.386,3.665-3.386l-0.954-0.886c0,0,1.683-0.698,2.875-0.824c1.179-0.112,2.474,0.524,3.237,1.151
	c0.041,0.027,0.081,0.061,0.116,0.092c0.77,0.664,1.717,1.72,1.717,1.72s-0.436-0.272-1.049-0.582
	c-0.858-0.438-2.058-0.93-2.902-0.876C178.191,187.968,174.887,189.14,173.837,192.505z M178.845,193.453
	c-0.137-1.029-3.066-2.62-1.2-3.517c0,0,2.944-1.227,4.278-0.319c1.363,0.906,2.508,4.633,2.508,4.633l0.021,2.819
	c0,0-0.817-2.479-1.452-2.315c-0.62,0.163-1.335,1.717-1.335,1.717s-0.933,1.771-2.494,1.053
	C177.598,196.808,178.981,194.487,178.845,193.453z M186.298,205.901c-0.34,1.982-0.477,4.013-1.874,3.509
	c-1.362-0.497-3.338-1.444-3.712-4.913c-0.381-3.461,0.511-4.618,0.511-4.618s-1.397,0.108-1.561-0.517
	c-0.164-0.596,1.417-0.276,1.683-1.076c0.259-0.808,1.355-2.156,1.355-2.156s0.96,0.886,1.472,1.935
	C184.711,199.121,186.639,203.878,186.298,205.901z"/>
<g>
	<g>
		<path fill="#11284B" d="M261.46,91.065v8.976h-10.702v51.092c0,11.779,7.278,17.596,20.59,17.596
			c13.526,0,20.66-5.816,20.66-17.596v-51.092h-10.821v-8.976h33.111v8.976h-10.701v53.294c0,16.617-14.677,25.093-32.513,25.093
			c-17.717,0-31.986-8.476-31.986-25.093v-53.294h-10.725v-8.976H261.46z"/>
		<path fill="#11284B" d="M337.642,165.164v12.04H325.36v-12.04H337.642z"/>
		<path fill="#11284B" d="M414.088,93.648v19.442h-11.565v-11.709c-5.674-1.34-10.486-2.463-17.501-2.463
			c-14.389,0-18.816,7.037-18.816,14.412c0,10.199,7.613,12.688,19.439,14.268c18.46,2.107,32.131,7.758,32.131,25.02
			c0,14.246-11.085,25.811-32.896,25.811c-10.198,0-20.542-1.725-30.119-4.07v-19.802h11.685v12.043
			c5.65,1.511,11.682,2.731,18.697,2.731c14.413,0,20.327-7.52,20.327-15.756c0-11.182-8.858-13.789-22.049-15.633
			c-18.22-2.322-29.282-7.255-29.282-23.75c0-12.904,9.602-24.372,31.004-24.372C395.485,89.819,404.487,91.424,414.088,93.648z"/>
		<path fill="#11284B" d="M444.805,165.164v12.04h-12.282v-12.04H444.805z"/>
		<path fill="#11284B" d="M533.414,91.065c17.213,0,25.354,11.562,25.354,25.593c0,14.651-7.733,26.574-25.858,26.574h-25.593
			v24.971h11.828v9.001h-34.093v-9.001h10.702v-68.162h-10.702v-8.976H533.414z M507.316,100.16v34.598h23.511
			c11.468,0,16.017-7.52,16.017-17.741c0-9.576-4.213-16.856-16.017-16.856H507.316z"/>
		<path fill="#11284B" d="M647.111,134.135c0,24.611-14.508,44.293-39.622,44.293c-24.972,0-39.744-19.682-39.744-44.293
			s14.772-44.315,39.744-44.315C632.603,89.819,647.111,109.523,647.111,134.135z M580.292,134.135
			c0,19.918,8.954,34.188,27.197,34.188c18.218,0,27.197-14.27,27.197-34.188c0-19.943-8.979-34.213-27.197-34.213
			C589.245,99.922,580.292,114.191,580.292,134.135z"/>
		<path fill="#11284B" d="M690.661,91.065v8.976h-11.443v68.162h33.59v-14.15h11.589v23.151h-67.47v-9.001h10.728v-68.162h-10.728
			v-8.976H690.661z"/>
		<path fill="#11284B" d="M811.494,134.135c0,24.611-14.51,44.293-39.624,44.293c-24.971,0-39.741-19.682-39.741-44.293
			s14.771-44.315,39.741-44.315C796.984,89.819,811.494,109.523,811.494,134.135z M744.697,134.135
			c0,19.918,8.979,34.188,27.173,34.188c18.222,0,27.197-14.27,27.197-34.188c0-19.943-8.976-34.213-27.197-34.213
			C753.676,99.922,744.697,114.191,744.697,134.135z"/>
		<path fill="#11284B" d="M911.665,91.065v8.976h-10.222l24.373,68.162h8.619v9.001h-31.651v-9.001h10.343l-6.153-17.715H873
			l-6.249,17.715h10.943v9.001h-31.628v-9.001h8.62l24.611-68.162h-10.225v-8.976H911.665z M886.814,109.882l-11.109,31.892h28.444
			l-11.062-32.012c-0.982-3.328-2.108-7.279-3.09-11.061C889.016,102.627,887.915,106.553,886.814,109.882z"/>
		<path fill="#11284B" d="M1003.196,93.648v19.442h-11.54v-11.709c-5.676-1.34-10.486-2.463-17.479-2.463
			c-14.412,0-18.816,7.037-18.816,14.412c0,10.199,7.588,12.688,19.439,14.268c18.437,2.107,32.105,7.758,32.105,25.02
			c0,14.246-11.083,25.811-32.848,25.811c-10.223,0-20.565-1.725-30.164-4.07v-19.802h11.681v12.043
			c5.65,1.511,11.684,2.731,18.723,2.731c14.389,0,20.278-7.52,20.278-15.756c0-11.182-8.834-13.789-22.024-15.633
			c-18.197-2.322-29.258-7.255-29.258-23.75c0-12.904,9.601-24.372,31.004-24.372C984.615,89.819,993.593,91.424,1003.196,93.648z"
			/>
		<path fill="#11284B" d="M1080.981,93.648v19.442h-11.563v-11.709c-5.673-1.34-10.487-2.463-17.524-2.463
			c-14.365,0-18.795,7.037-18.795,14.412c0,10.199,7.636,12.688,19.415,14.268c18.483,2.107,32.155,7.758,32.155,25.02
			c0,14.246-11.108,25.811-32.872,25.811c-10.201,0-20.542-1.725-30.143-4.07v-19.802h11.684v12.043
			c5.65,1.511,11.707,2.731,18.698,2.731c14.411,0,20.326-7.52,20.326-15.756c0-11.182-8.86-13.789-22.051-15.633
			c-18.194-2.322-29.28-7.255-29.28-23.75c0-12.904,9.602-24.372,31.005-24.372C1062.378,89.819,1071.358,91.424,1080.981,93.648z"
			/>
		<path fill="#11284B" d="M1121.059,91.065l33.734,62.008c1.221,2.345,2.441,5.673,3.445,8.14c-0.261-2.705-0.381-6.273-0.381-9.002
			v-52.17h-9.84v-8.976h31.891v8.976h-10.702v77.163h-14.151l-35.455-66.103c-1.128-2.32-2.347-5.529-3.33-7.732
			c0.239,2.441,0.359,5.65,0.359,8.117v56.717h10.726v9.001h-32.512v-9.001h10.725v-68.162h-10.725v-8.976H1121.059z"/>
		<path fill="#11284B" d="M1204.112,165.164v12.04h-12.281v-12.04H1204.112z"/>
	</g>
	<g>
		<path fill="#A31F37" d="M551.967,218.48v10.511h-4.98v-7.135c-3.734-1.007-6.964-1.819-11.73-1.819
			c-9.432,0-12.546,4.764-12.546,9.696c0,7.016,5.292,8.549,12.617,9.577c10.272,1.315,18.627,4.263,18.627,14.579
			c0,8.142-6.177,15.037-18.771,15.037c-6.009,0-11.802-1.101-17.309-2.49v-10.799h5.004v7.422c3.71,1.102,7.685,1.988,12.377,1.988
			c9.481,0,13.408-5.125,13.408-10.75c0-7.66-6.225-9.291-14.293-10.51c-9.96-1.389-16.831-3.902-16.831-13.721
			c0-7.252,5.411-13.934,17.788-13.934C541.409,216.134,546.484,217.188,551.967,218.48z"/>
		<path fill="#A31F37" d="M578.854,216.876v3.879h-6.727v43.525h6.727v3.904h-18.386v-3.904h6.654v-43.525h-6.654v-3.879H578.854z"
			/>
		<path fill="#A31F37" d="M597.456,216.876l22.889,39.863c0.719,1.388,1.436,3.184,2.106,4.621
			c-0.167-1.629-0.216-3.592-0.216-5.196v-35.409h-6.321v-3.879h17.91v3.879h-6.752v47.43h-5.962l-23.726-41.852
			c-0.766-1.412-1.581-3.087-2.131-4.38c0.071,1.46,0.144,3.207,0.144,4.669v37.658h6.751v3.904h-18.171v-3.904h6.631v-43.525
			h-6.631v-3.879H597.456z"/>
		<path fill="#A31F37" d="M681.276,218.553v10.869h-4.908v-7.254c-3.807-1.054-8.068-1.699-12.305-1.699
			c-12.403,0-18.772,9.312-18.772,22.072c0,12.738,6.466,22.051,18.843,22.051c4.166,0,8.428-0.67,12.234-1.698v-7.256h4.908v10.87
			c-5.411,1.46-11.659,2.419-17.143,2.419c-15.418,0-24.181-11.974-24.181-26.386c0-14.459,8.476-26.407,24.229-26.407
			C669.759,216.134,675.865,217.093,681.276,218.553z"/>
		<path fill="#A31F37" d="M728.322,216.876v11.087h-4.907v-7.208h-23.967v18.867h21.38v3.878h-21.38v20.78h24.086v-7.327h5.002
			v11.231h-40.747v-3.904h6.632v-43.525h-6.632v-3.879H728.322z"/>
		<path fill="#A31F37" d="M764.187,268.185v-3.904h10.269v-42.928l-13.047,9.077l-1.916-3.427l14.963-10.127h5.053v47.404h8.715
			v3.904H764.187z"/>
		<path fill="#A31F37" d="M831.676,229.184c0,6.081-3.735,11.014-11.49,12.162c7.684,0.623,12.88,5.673,12.88,13.43
			c0,8.549-6.297,14.151-17.599,14.151c-11.275,0-17.644-5.603-17.644-14.151c0-7.757,5.267-12.687,12.903-13.336
			c-7.491-1.242-11.515-6.103-11.515-12.256c0-7.494,5.65-13.05,16.255-13.05C826.051,216.134,831.676,221.783,831.676,229.184z
			 M802.516,254.201c0,6.298,4.476,10.727,12.951,10.727c8.428,0,12.931-4.429,12.931-10.727c0-8.067-6.249-10.94-12.931-10.94
			C808.789,243.261,802.516,246.134,802.516,254.201z M803.906,229.661c0,6.632,4.98,9.961,11.562,9.961
			c6.61,0,11.541-3.329,11.541-9.961c0-5.603-3.997-9.768-11.541-9.768C807.952,219.894,803.906,224.059,803.906,229.661z"/>
		<path fill="#A31F37" d="M877.095,241.488c0,16.28-6.44,27.438-18.986,27.438c-4.836,0-10.104-0.959-14.868-2.705v-9.913h4.764
			v7.182c3.114,1.102,6.584,1.771,10.104,1.771c9.457,0,13.861-9.17,14.006-22.24c-3.136,3.902-7.901,7.039-14.462,7.039
			c-11.707,0-16.184-8.045-16.184-16.4c0-9.529,5.963-17.526,17.383-17.526C870.606,216.134,877.095,225.591,877.095,241.488z
			 M846.305,233.374c0,6.823,2.944,13.046,12.257,13.046c5.723,0,10.559-3.159,13.481-7.037
			c-0.287-11.587-4.694-19.251-13.409-19.251C850.279,220.132,846.305,225.735,846.305,233.374z"/>
		<path fill="#A31F37" d="M921.125,242.541c0,16.546-6.946,26.386-18.004,26.386c-11.087,0-18.053-9.84-18.053-26.386
			c0-16.592,6.966-26.407,18.053-26.407C914.178,216.134,921.125,225.949,921.125,242.541z M890.12,242.541
			c0,12.738,4.021,22.123,13.001,22.123c8.927,0,12.951-9.385,12.951-22.123c0-12.761-4.024-22.119-12.951-22.119
			C894.141,220.422,890.12,229.78,890.12,242.541z"/>
	</g>
</g>
</svg>
